<?xml version="1.0" encoding="UTF-8" standalone="no"?>
<!-- Created with Inkscape (http://www.inkscape.org/) -->

<svg
   xmlns:dc="http://purl.org/dc/elements/1.1/"
   xmlns:cc="http://creativecommons.org/ns#"
   xmlns:rdf="http://www.w3.org/1999/02/22-rdf-syntax-ns#"
   xmlns:svg="http://www.w3.org/2000/svg"
   xmlns="http://www.w3.org/2000/svg"
   xmlns:sodipodi="http://sodipodi.sourceforge.net/DTD/sodipodi-0.dtd"
   xmlns:inkscape="http://www.inkscape.org/namespaces/inkscape"
   width="440.70078"
   height="629"
   viewBox="0 0 116.60281 166.42396"
   version="1.1"
   id="svg8"
   inkscape:version="0.92.4 (5da689c313, 2019-01-14)"
   sodipodi:docname="juuuuu.svg">
  <defs
     id="defs2" />
  <sodipodi:namedview
     id="base"
     pagecolor="#ffffff"
     bordercolor="#666666"
     borderopacity="1.0"
     inkscape:pageopacity="0.0"
     inkscape:pageshadow="2"
     inkscape:zoom="0.24748737"
     inkscape:cx="-635.50958"
     inkscape:cy="776.0253"
     inkscape:document-units="mm"
     inkscape:current-layer="layer2"
     showgrid="false"
     inkscape:window-width="1366"
     inkscape:window-height="705"
     inkscape:window-x="-8"
     inkscape:window-y="-8"
     inkscape:window-maximized="1"
     showguides="true"
     inkscape:guide-bbox="true"
     units="px" />
  <metadata
     id="metadata5">
    <rdf:RDF>
      <cc:Work
         rdf:about="">
        <dc:format>image/svg+xml</dc:format>
        <dc:type
           rdf:resource="http://purl.org/dc/dcmitype/StillImage" />
        <dc:title></dc:title>
      </cc:Work>
    </rdf:RDF>
  </metadata>
  <g
     inkscape:groupmode="layer"
     id="layer2"
     inkscape:label="Layer 2"
     transform="translate(0,-130.57479)">
    <path
       style="fill:none;stroke:#000000;stroke-width:0.26458332px;stroke-linecap:butt;stroke-linejoin:miter;stroke-opacity:1"
       d="m 60.208944,132.60429 c -0.34544,-0.41754 -1.50819,0.26617 -1.60361,-0.26727 -0.12647,-0.70705 1.15429,-1.11808 1.87088,-1.06908 0.72889,0.0498 1.84532,0.61379 1.73725,1.33635 -0.0563,0.3764 -0.83609,-0.46701 -1.06907,-0.16606 -0.51767,0.66869 -0.6575,2.33957 -0.26727,3.08981 0.0816,0.15686 0.3634,0.11166 0.46397,0.25709 0.18431,0.2665 0.13342,0.74202 0.14074,0.96183 0.0158,0.47326 -0.60471,1.06908 -0.60471,1.06908 l 7.08264,48.50942 -0.13363,-1.87088 0.93544,2.93996 -0.13364,1.73725 0.80181,-2.13815 0.80181,4.40995 0.80181,1.73725 -0.40091,2.80633 0.53454,0.13363 -0.13363,4.27632 v 13.49711 l 0.26727,0.26726 -0.13364,1.20272 0.53454,1.20271 -0.80181,1.06908 0.13364,4.54358 0.80181,1.46998 0.13363,-4.27631 -0.80181,-0.13363 1.06908,-1.33635 1.46998,-13.69757 c 0,0 -0.65726,-0.55241 -0.66817,-0.93544 -0.0143,-0.50031 0.44017,-0.92352 0.80181,-1.26953 0.12975,-0.12414 0.29215,-0.30495 0.46772,-0.26727 0.29619,0.0636 0.37159,0.47961 0.53454,0.73499 0.12335,0.19331 0.29615,0.37521 0.33409,0.60136 0.0636,0.37918 -0.20046,1.13589 -0.20046,1.13589 l -0.20045,0.20046 1.93771,13.89801 0.66817,0.93545 h -0.80181 l -0.20045,5.81311 0.46772,1.46998 0.0668,1.9377 -0.26727,3.0736 27.461946,-0.13363 0.26727,-4.40995 -0.73499,-0.60135 0.13364,-0.86863 0.73499,-0.26727 0.73499,0.20045 0.13363,1.1359 -0.4009,0.4009 0.80181,7.34991 0.66817,-6.48128 -0.53454,-0.26727 v -0.66817 l 0.66818,-0.40091 0.46772,0.40091 0.4009,0.8018 -0.53454,0.33409 1.00226,10.08942 0.40091,0.53454 -0.40091,0.86863 0.24133,2.58686 h 0.85045 v -1.5119 l 0.56696,0.0945 0.28348,1.5119 -0.18898,0.66146 0.85044,1.98438 -0.47247,1.03943 0.0945,2.64584 2.26785,2.83482 -0.47247,1.13393 -0.28348,8.12648 1.32292,3.11831 0.66146,0.37797 -0.0945,1.51191 0.66146,2.26785 -0.47247,0.37798 0.37798,16.15848 0.66146,1.98438 -0.18899,3.59077 0.47247,2.55134 h 1.13393 l -0.0945,3.1183 H 1.1433578 l -0.18898999,-4.34672 0.99218799,0.37797 0.330729,-5.85863 h -0.519716 l 1.181174,-1.98437 -0.188986,-5.85863 -0.425223,-0.23624 -0.0945,-1.22842 0.897695,-1.6064 -0.236236,-7.03981 -0.283483,-0.18898 -0.04725,-0.70871 1.086683,-1.46466 -0.04725,-0.61421 -0.661459,-0.37797 0.236236,-0.42523 0.803201,-0.56696 0.519716,0.47247 0.04725,0.7087 v 0.66146 h 0.566965 l -0.14174,-0.99218 -0.283483,-0.28349 1.370163,-3.59077 0.14174,-7.84301 -1.22842,-1.22842 0.09449,-0.47247 0.755952,-0.56697 1.464659,-2.12611 0.14174,-3.07106 -0.519719,-0.56696 0.716156,-2.33187 -0.133636,-1.46998 0.467723,-0.73499 0.200451,1.73725 h 1.069078 l 0.133635,-3.60814 -0.267268,-0.13364 2.1381562,-10.82441 -0.400905,-0.4009 -0.06682,-0.53454 0.734992,-0.60136 0.534537,0.26727 0.200454,0.60136 -0.400905,0.60135 0.267269,4.94449 0.668174,-0.86863 v -1.00226 l 0.267271,-0.0668 0.06681,-2.13815 -0.06681,-1.80407 -0.467722,-0.86863 0.06682,-1.00226 0.601356,-0.20045 0.467722,0.26727 0.334087,1.06908 -0.133636,0.73499 0.06682,1.40316 0.267269,0.46772 -0.200451,0.80181 -0.06682,1.73726 0.334087,0.26726 v 0.33409 l 27.862847,0.0668 -0.400902,-4.07586 0.801807,-1.5368 0.06682,-1.46998 -0.334087,-1.00226 0.601356,-0.13364 -0.133634,-3.27405 -1.135895,-0.53454 1.336346,-2.20497 1.670434,-13.63075 -0.46772,-0.60135 c 0,0 0.372938,-0.55801 0.601356,-0.80181 0.140395,-0.14985 0.26253,-0.40879 0.467722,-0.40091 0.220324,0.008 0.326009,0.29881 0.467723,0.46772 0.174741,0.20828 0.48347,0.39677 0.46772,0.66818 -0.01554,0.26774 -0.534538,0.60135 -0.534538,0.60135 l 1.536798,13.96484 0.868627,1.60361 -0.801809,0.80181 v 4.34313 l 1.737251,-2.67269 -0.334087,-4.81086 -0.601355,-0.86862 0.467722,-0.13364 -0.200453,-2.07133 0.734991,0.66817 0.400905,-16.03617 -0.467723,-2.53906 h 0.801809 l -0.267269,-1.5368 -0.467722,-0.60136 1.670436,-4.40995 -0.334089,-0.93544 0.200454,-0.66817 0.734991,0.13363 0.133633,0.46772 -0.400902,0.93545 0.534538,0.93544 0.400904,2.13816 -0.133635,-4.40995 0.267271,-0.13364 v -2.80633 l 0.868624,-0.26726 6.949001,-46.83899 c 0,0 -0.47584,-0.61209 -0.53454,-0.97934 -0.0477,-0.29842 -0.009,-0.64415 0.16467,-0.89155 0.12654,-0.18036 0.45855,-0.14422 0.57033,-0.33409 0.48601,-0.82554 0.67751,-2.13504 0.0668,-2.87315 z"
       id="path1431"
       inkscape:connector-curvature="0"
       sodipodi:nodetypes="csssssasccccccccccccccccccccccsssssccccccccccccccccccccccccccccccccccccccccccccccccccccccccccccccccccccccccccccccccccccccccccccccccccccccccccccccccccccccccccccccsssscccccccccccccccccccccccccccccaassc" />
    <path
       style="opacity:0;fill:none;stroke:#000000;stroke-width:0.26458332px;stroke-linecap:butt;stroke-linejoin:miter;stroke-opacity:1"
       d="m 40.375289,281.59748 h 5.397626 l -0.04725,-18.19962 c 0,0 -0.268927,-0.92823 -0.519716,-1.33437 -0.220363,-0.35688 -0.294555,-0.62485 -0.843732,-0.93348 -0.147871,-0.0831 -0.971068,-0.1929 -1.140645,-0.18899 -0.570735,0.0132 -1.107612,0.35938 -1.55915,0.7087 -0.336558,0.26037 -0.803201,0.99219 -0.803201,0.99219 z"
       id="path1433"
       inkscape:connector-curvature="0"
       sodipodi:nodetypes="cccassscc" />
    <path
       style="opacity:0;fill:none;stroke:#000000;stroke-width:0.26458332px;stroke-linecap:butt;stroke-linejoin:miter;stroke-opacity:1"
       d="m 48.456546,281.59748 0.14174,-17.4814 c 0,0 0.299703,-0.86517 0.566965,-1.22843 0.389875,-0.52992 0.861014,-1.06133 1.464659,-1.32291 0.174009,-0.0754 0.381562,-0.0872 0.566963,-0.0473 0.475555,0.10232 0.922179,0.37455 1.275669,0.70871 0.257187,0.24312 0.415407,0.57787 0.566967,0.89769 0.127957,0.27003 0.283477,0.85045 0.283477,0.85045 l -0.283477,17.62314 z"
       id="path1435"
       inkscape:connector-curvature="0"
       sodipodi:nodetypes="ccsssssccc" />
    <path
       style="opacity:0;fill:none;stroke:#000000;stroke-width:0.26458332px;stroke-linecap:butt;stroke-linejoin:miter;stroke-opacity:1"
       d="m 55.559684,281.29687 0.19398,-18.70905 c 0,0 -0.0242,-0.97462 0.14927,-1.41664 0.19329,-0.49261 0.58341,-0.89065 0.95171,-1.27063 0.36633,-0.37796 0.76683,-0.74253 1.23368,-0.98564 0.29167,-0.15189 0.61915,-0.31057 0.94643,-0.27845 0.54679,0.0537 1.06092,0.38677 1.46062,0.76372 0.37531,0.35395 0.55846,0.71024 0.79616,1.09331 0.17802,0.28689 0.46894,0.89783 0.46894,0.89783 l 0.31035,20.20616 -6.51264,-0.0171 z"
       id="path1437"
       inkscape:connector-curvature="0"
       sodipodi:nodetypes="ccsssssacccc" />
    <path
       style="opacity:0;fill:none;stroke:#000000;stroke-width:0.26458332px;stroke-linecap:butt;stroke-linejoin:miter;stroke-opacity:1"
       d="m 64.047404,281.59748 0.20856,-17.62315 c 0,0 0.2997,-0.86517 0.56696,-1.22843 0.38987,-0.52992 0.86101,-1.06133 1.46466,-1.32291 0.17401,-0.0754 0.38157,-0.0872 0.56697,-0.0473 0.47556,0.10232 0.92218,0.37455 1.27567,0.70871 0.25719,0.24312 0.4154,0.57787 0.56696,0.89769 0.12796,0.27003 0.28348,0.85045 0.28348,0.85045 l -0.18325,17.76494 z"
       id="path1435-1"
       inkscape:connector-curvature="0"
       sodipodi:nodetypes="ccsssssccc" />
    <path
       style="opacity:0;fill:none;stroke:#000000;stroke-width:0.26458332px;stroke-linecap:butt;stroke-linejoin:miter;stroke-opacity:1"
       d="m 71.427544,281.59748 h 5.46444 l -0.18083,-18.18496 c 0,0 -0.28109,-0.79343 -0.51972,-1.13392 -0.19071,-0.27211 -0.43898,-0.50751 -0.7101,-0.69962 -0.38582,-0.27337 -0.80148,-0.61661 -1.27428,-0.6233 -0.57083,-0.008 -1.10761,0.35938 -1.55915,0.7087 -0.33656,0.26037 -0.8032,0.99219 -0.8032,0.99219 z"
       id="path1433-8"
       inkscape:connector-curvature="0"
       sodipodi:nodetypes="cccaaascc" />
    <path
       style="opacity:0;fill:none;stroke:#000000;stroke-width:0.26458332px;stroke-linecap:butt;stroke-linejoin:miter;stroke-opacity:1"
       d="m 49.406212,234.53944 0.02363,-9.89826 c 0,0 0.118879,-0.44232 0.259858,-0.61421 0.150973,-0.18407 0.359644,-0.34381 0.590589,-0.4016 0.215117,-0.0538 0.462653,-0.0273 0.661459,0.0709 0.194755,0.0962 0.448847,0.47248 0.448847,0.47248 l 0.158962,9.99799 -0.01722,0.3727 z"
       id="path1485"
       inkscape:connector-curvature="0"
       sodipodi:nodetypes="ccssscccc" />
    <path
       style="opacity:0;fill:none;stroke:#000000;stroke-width:0.26458332px;stroke-linecap:butt;stroke-linejoin:miter;stroke-opacity:1"
       d="m 53.092308,234.53944 -0.317384,-14.20393 c 0,0 0.460503,-0.76342 0.801809,-1.03567 0.26875,-0.21438 0.611677,-0.28575 0.935447,-0.26727 0.348937,0.0199 0.685714,0.15601 0.968844,0.40091 0.26965,0.23325 0.66817,0.83521 0.66817,0.83521 l 0.0334,10.02261 v 4.24814 z"
       id="path1487"
       inkscape:connector-curvature="0"
       sodipodi:nodetypes="ccsascccc" />
    <path
       style="opacity:0;fill:none;stroke:#000000;stroke-width:0.26458332px;stroke-linecap:butt;stroke-linejoin:miter;stroke-opacity:1"
       d="m 58.433954,214.64581 c -0.24854,0.32142 -0.5469,1.08931 -0.5469,1.08931 l 0.25891,18.80432 h 3.52085 l -0.18899,-18.09561 0.0174,-0.78554 c 0,0 -0.24743,-0.6043 -0.43431,-0.86862 -0.12504,-0.17685 -0.27721,-0.37957 -0.45102,-0.46772 -0.43206,-0.21914 -0.97095,-0.21767 -1.45328,-0.15033 -0.11879,0.0166 -0.23184,0.0709 -0.33409,0.13363 -0.14682,0.09 -0.28322,0.20432 -0.38857,0.34056 z"
       id="path1489"
       inkscape:connector-curvature="0"
       sodipodi:nodetypes="acccccasaaa" />
    <path
       style="opacity:0;fill:none;stroke:#000000;stroke-width:0.26458332px;stroke-linecap:butt;stroke-linejoin:miter;stroke-opacity:1"
       d="m 63.696994,234.53944 -0.31739,-14.01732 c 0,0 0.44028,-0.79091 0.80181,-1.03567 0.26854,-0.18181 0.61168,-0.28575 0.93545,-0.26727 0.34894,0.0199 0.68939,0.19101 0.96885,0.40091 0.28508,0.21412 0.66817,0.83521 0.66817,0.83521 l 0.0334,10.02261 v 4.06153 z"
       id="path1487-8"
       inkscape:connector-curvature="0"
       sodipodi:nodetypes="ccaaacccc" />
    <path
       style="opacity:0;fill:none;stroke:#000000;stroke-width:0.26458332px;stroke-linecap:butt;stroke-linejoin:miter;stroke-opacity:1"
       d="m 68.363464,234.51579 0.0236,-9.6384 c 0,0 0.11888,-0.44232 0.25986,-0.61421 0.15097,-0.18407 0.35964,-0.34381 0.59059,-0.4016 0.21512,-0.0538 0.46265,-0.0273 0.66146,0.0709 0.19475,0.0962 0.44884,0.47248 0.44884,0.47248 l 0.15897,9.99799 -0.0172,0.13649 z"
       id="path1485-4"
       inkscape:connector-curvature="0"
       sodipodi:nodetypes="ccssscccc" />
    <path
       style="opacity:0;fill:none;stroke:#000000;stroke-width:0.26458332px;stroke-linecap:butt;stroke-linejoin:miter;stroke-opacity:1"
       d="m 20.183927,281.14389 v -14.83557 l 0.944939,-1.22842 1.322916,-0.0945 1.13393,1.13393 0.09449,15.40252 -3.496279,-0.0354 z"
       id="path1527"
       inkscape:connector-curvature="0" />
    <path
       style="opacity:0;fill:none;stroke:#000000;stroke-width:0.26458332px;stroke-linecap:butt;stroke-linejoin:miter;stroke-opacity:1"
       d="m 26.109418,281.48952 -0.100225,-16.20321 0.501129,-1.03567 1.536801,-1.06908 h 0.935442 l 1.336347,0.7684 0.467722,0.80181 -0.133633,16.70434 z"
       id="path1529"
       inkscape:connector-curvature="0" />
    <path
       style="opacity:0;fill:none;stroke:#000000;stroke-width:0.26374054px;stroke-linecap:butt;stroke-linejoin:miter;stroke-opacity:1"
       d="m 94.641784,281.25487 v -14.83564 l -0.93893,-1.22843 -1.31449,-0.0945 -1.12671,1.13393 -0.0939,15.4026 3.47401,-0.0354 z"
       id="path1527-7"
       inkscape:connector-curvature="0" />
    <path
       style="opacity:0;fill:none;stroke:#000000;stroke-width:0.26374054px;stroke-linecap:butt;stroke-linejoin:miter;stroke-opacity:1"
       d="m 88.743894,281.6005 0.0996,-16.20329 -0.49793,-1.03567 -1.52702,-1.06909 h -0.92949 l -1.32784,0.7684 -0.46475,0.80182 0.13279,16.70442 z"
       id="path1529-2"
       inkscape:connector-curvature="0" />
    <path
       style="opacity:0;fill:none;stroke:#000000;stroke-width:0.26458332px;stroke-linecap:butt;stroke-linejoin:miter;stroke-opacity:1"
       d="m 58.204424,195.6799 -0.0668,-5.07812 2.00453,-2.80633 1.80406,2.87314 -0.0668,5.21176 -3.67496,-0.0334 z"
       id="path1553"
       inkscape:connector-curvature="0" />
    <path
       style="opacity:0;fill:none;stroke:#000000;stroke-width:0.1882073px;stroke-linecap:butt;stroke-linejoin:miter;stroke-opacity:1"
       d="m 15.189421,253.56966 0.02374,-4.98581 c 0,0 0.119419,-0.2228 0.26104,-0.30938 0.15166,-0.0927 0.36128,-0.17318 0.593276,-0.20229 0.216095,-0.0271 0.464757,-0.0137 0.664468,0.0357 0.195641,0.0485 0.450889,0.23799 0.450889,0.23799 l 0.159685,5.03605 -0.0173,0.18773 z"
       id="path1485-3"
       inkscape:connector-curvature="0"
       sodipodi:nodetypes="ccssscccc" />
    <path
       style="opacity:0;fill:none;stroke:#000000;stroke-width:0.1882073px;stroke-linecap:butt;stroke-linejoin:miter;stroke-opacity:1"
       d="m 18.358305,253.56966 -0.318828,-7.1546 c 0,0 0.462598,-0.38454 0.805457,-0.52167 0.269972,-0.10799 0.614459,-0.14394 0.939702,-0.13463 0.350528,0.01 0.68884,0.0786 0.973258,0.20194 0.270877,0.11749 0.67121,0.4207 0.67121,0.4207 l 0.03355,5.04845 v 2.13981 z"
       id="path1487-6"
       inkscape:connector-curvature="0"
       sodipodi:nodetypes="ccsascccc" />
    <path
       style="opacity:0;fill:none;stroke:#000000;stroke-width:0.1882073px;stroke-linecap:butt;stroke-linejoin:miter;stroke-opacity:1"
       d="m 23.19027,243.54913 c -0.249671,0.1619 -0.549388,0.54869 -0.549388,0.54869 l 0.260088,9.47184 h 3.536867 l -0.18985,-9.11486 0.01748,-0.39568 c 0,0 -0.248556,-0.30439 -0.436286,-0.43753 -0.125609,-0.0891 -0.278471,-0.19119 -0.453072,-0.23559 -0.434026,-0.11039 -0.975367,-0.10965 -1.459891,-0.0757 -0.119331,0.008 -0.232895,0.0357 -0.33561,0.0673 -0.147488,0.0453 -0.284509,0.10292 -0.390338,0.17155 z"
       id="path1489-2"
       inkscape:connector-curvature="0"
       sodipodi:nodetypes="acccccasaaa" />
    <path
       style="opacity:0;fill:none;stroke:#000000;stroke-width:0.1882073px;stroke-linecap:butt;stroke-linejoin:miter;stroke-opacity:1"
       d="m 27.943265,253.56966 -0.318833,-7.0606 c 0,0 0.442283,-0.39839 0.805457,-0.52168 0.269762,-0.0916 0.614463,-0.14393 0.939706,-0.13462 0.350527,0.01 0.692526,0.0962 0.973258,0.20194 0.286376,0.10785 0.671209,0.4207 0.671209,0.4207 l 0.03355,5.04844 v 2.04582 z"
       id="path1487-8-3"
       inkscape:connector-curvature="0"
       sodipodi:nodetypes="ccaaacccc" />
    <path
       style="opacity:0;fill:none;stroke:#000000;stroke-width:0.1882073px;stroke-linecap:butt;stroke-linejoin:miter;stroke-opacity:1"
       d="m 32.096977,253.55774 0.02371,-4.85491 c 0,0 0.119421,-0.2228 0.261043,-0.30938 0.151656,-0.0927 0.361276,-0.17318 0.593276,-0.20229 0.216099,-0.0271 0.464755,-0.0137 0.66447,0.0357 0.195636,0.0485 0.450881,0.23799 0.450881,0.23799 l 0.159694,5.03605 -0.01728,0.0687 z"
       id="path1485-4-0"
       inkscape:connector-curvature="0"
       sodipodi:nodetypes="ccssscccc" />
    <path
       style="opacity:0;fill:none;stroke:#000000;stroke-width:0.18820731px;stroke-linecap:butt;stroke-linejoin:miter;stroke-opacity:1"
       d="m 80.666794,253.72179 0.0237,-4.98581 c 0,0 0.11942,-0.2228 0.26104,-0.30938 0.15166,-0.0927 0.36128,-0.17318 0.59327,-0.20229 0.2161,-0.0271 0.46476,-0.0137 0.66447,0.0357 0.19564,0.0485 0.45089,0.23799 0.45089,0.23799 l 0.15969,5.03605 -0.0173,0.18773 z"
       id="path1485-3-3"
       inkscape:connector-curvature="0"
       sodipodi:nodetypes="ccssscccc" />
    <path
       style="opacity:0;fill:none;stroke:#000000;stroke-width:0.18820731px;stroke-linecap:butt;stroke-linejoin:miter;stroke-opacity:1"
       d="m 84.364844,253.72179 -0.31882,-7.1546 c 0,0 0.46259,-0.38454 0.80545,-0.52167 0.26998,-0.10799 0.61446,-0.14394 0.93971,-0.13463 0.35052,0.01 0.68884,0.0786 0.97325,0.20194 0.27088,0.11749 0.67121,0.4207 0.67121,0.4207 l 0.0335,5.04845 v 2.13981 z"
       id="path1487-6-2"
       inkscape:connector-curvature="0"
       sodipodi:nodetypes="ccsascccc" />
    <path
       style="opacity:0;fill:none;stroke:#000000;stroke-width:0.18820731px;stroke-linecap:butt;stroke-linejoin:miter;stroke-opacity:1"
       d="m 89.196814,243.70126 c -0.24967,0.1619 -0.54939,0.54869 -0.54939,0.54869 l 0.26009,9.47184 h 3.53687 l -0.18985,-9.11486 0.0175,-0.39568 c 0,0 -0.24856,-0.30439 -0.43629,-0.43753 -0.12561,-0.0891 -0.27847,-0.19119 -0.45307,-0.23559 -0.43402,-0.11039 -0.97537,-0.10965 -1.45989,-0.0757 -0.11933,0.008 -0.23289,0.0357 -0.33561,0.0673 -0.14749,0.0453 -0.28451,0.10292 -0.39034,0.17155 z"
       id="path1489-2-2"
       inkscape:connector-curvature="0"
       sodipodi:nodetypes="acccccasaaa" />
    <path
       style="opacity:0;fill:none;stroke:#000000;stroke-width:0.18820731px;stroke-linecap:butt;stroke-linejoin:miter;stroke-opacity:1"
       d="m 93.949814,253.72179 -0.31883,-7.0606 c 0,0 0.44228,-0.39839 0.80545,-0.52168 0.26977,-0.0916 0.61447,-0.14393 0.93971,-0.13462 0.35053,0.01 0.69253,0.0962 0.97326,0.20194 0.28637,0.10785 0.67121,0.4207 0.67121,0.4207 l 0.0335,5.04844 v 2.04582 z"
       id="path1487-8-3-6"
       inkscape:connector-curvature="0"
       sodipodi:nodetypes="ccaaacccc" />
    <path
       style="opacity:0;fill:none;stroke:#000000;stroke-width:0.18820731px;stroke-linecap:butt;stroke-linejoin:miter;stroke-opacity:1"
       d="m 98.632704,253.70987 0.0237,-4.85491 c 0,0 0.11942,-0.2228 0.26104,-0.30938 0.15165,-0.0927 0.36127,-0.17318 0.59327,-0.20229 0.2161,-0.0271 0.46476,-0.0137 0.664466,0.0357 0.19564,0.0485 0.4509,0.23799 0.4509,0.23799 l 0.15969,5.03605 -0.0173,0.0687 z"
       id="path1485-4-0-7"
       inkscape:connector-curvature="0"
       sodipodi:nodetypes="ccssscccc" />
    <path
       style="opacity:0;fill:none;stroke:#000000;stroke-width:0.25594598px;stroke-linecap:butt;stroke-linejoin:miter;stroke-opacity:1"
       d="m 48.712081,253.34679 0.02942,-7.42778 c 0,0 0.148244,-0.33193 0.324046,-0.46091 0.188266,-0.13811 0.448482,-0.25801 0.736466,-0.30137 0.26826,-0.0404 0.576938,-0.0204 0.824852,0.0532 0.242861,0.0723 0.55972,0.35456 0.55972,0.35456 l 0.198234,7.50262 -0.02148,0.27968 z"
       id="path1485-3-5"
       inkscape:connector-curvature="0"
       sodipodi:nodetypes="ccssscccc" />
    <path
       style="opacity:0;fill:none;stroke:#000000;stroke-width:0.25594598px;stroke-linecap:butt;stroke-linejoin:miter;stroke-opacity:1"
       d="m 53.047265,253.34679 -0.395772,-10.65881 c 0,0 0.574244,-0.57289 0.999859,-0.77718 0.335143,-0.16088 0.762773,-0.21444 1.166525,-0.20057 0.435127,0.0149 0.855107,0.1171 1.208157,0.30085 0.33626,0.17503 0.83322,0.62675 0.83322,0.62675 l 0.0416,7.5211 v 3.18786 z"
       id="path1487-6-0"
       inkscape:connector-curvature="0"
       sodipodi:nodetypes="ccsascccc" />
    <path
       style="opacity:0;fill:none;stroke:#000000;stroke-width:0.25594598px;stroke-linecap:butt;stroke-linejoin:miter;stroke-opacity:1"
       d="m 58.917794,238.41836 c -0.30994,0.2412 -0.682,0.81743 -0.682,0.81743 l 0.32287,14.111 h 4.39055 l -0.23567,-13.57918 0.0217,-0.58948 c 0,0 -0.30855,-0.45347 -0.54159,-0.65182 -0.15593,-0.13274 -0.34569,-0.28483 -0.56243,-0.35098 -0.53878,-0.16446 -1.21079,-0.16335 -1.81226,-0.11278 -0.14813,0.0119 -0.2891,0.0532 -0.41661,0.10027 -0.18309,0.0675 -0.35319,0.15332 -0.48456,0.25557 z"
       id="path1489-2-4"
       inkscape:connector-curvature="0"
       sodipodi:nodetypes="acccccasaaa" />
    <path
       style="opacity:0;fill:none;stroke:#000000;stroke-width:0.25594598px;stroke-linecap:butt;stroke-linejoin:miter;stroke-opacity:1"
       d="m 64.690284,253.34679 -0.39579,-10.51877 c 0,0 0.54904,-0.59352 0.99986,-0.77719 0.33489,-0.13647 0.76279,-0.21443 1.16653,-0.20056 0.43514,0.0149 0.85968,0.14332 1.20817,0.30085 0.35549,0.16067 0.83322,0.62675 0.83322,0.62675 l 0.0417,7.52109 v 3.04783 z"
       id="path1487-8-3-8"
       inkscape:connector-curvature="0"
       sodipodi:nodetypes="ccaaacccc" />
    <path
       style="opacity:0;fill:none;stroke:#000000;stroke-width:0.25594598px;stroke-linecap:butt;stroke-linejoin:miter;stroke-opacity:1"
       d="m 70.248024,253.32903 0.0294,-7.23277 c 0,0 0.14824,-0.33192 0.32404,-0.46091 0.18826,-0.1381 0.44847,-0.258 0.73647,-0.30137 0.26826,-0.0404 0.57694,-0.0204 0.82485,0.0532 0.24286,0.0722 0.55972,0.35455 0.55972,0.35455 l 0.19824,7.50263 -0.0215,0.10235 z"
       id="path1485-4-0-0"
       inkscape:connector-curvature="0"
       sodipodi:nodetypes="ccssscccc" />
    <path
       style="fill:#ffffff;stroke:none;stroke-width:0.37797621"
       d="m 1.4418724,294.66481 c -0.4395735,-1.64027 -0.2827444,-2.92267 0.3287316,-2.68802 0.4667805,0.17912 0.5774187,-0.24041 0.6261258,-2.37422 0.032541,-1.42548 0.14546,-3.10204 0.2509309,-3.7257 0.1054735,-0.62366 0.2064173,-3.11826 0.2243216,-5.54355 0.017912,-2.42529 0.1601179,-4.53724 0.3160316,-4.69321 0.352425,-0.35254 0.3225191,-3.84239 -0.055695,-6.49938 -0.2115582,-1.48622 -0.1466453,-2.19114 0.254508,-2.76387 0.2961746,-0.42285 0.4523105,-1.09839 0.3469693,-1.50122 -0.1053386,-0.40282 -0.037362,-0.7324 0.1510638,-0.7324 0.1884231,0 0.3425905,0.34017 0.3425905,0.75595 0,0.41577 0.2499545,0.75595 0.555453,0.75595 0.3806163,0 0.5463487,-0.38667 0.5265288,-1.22842 -0.015901,-0.67563 0.2444062,-1.8608 0.5784744,-2.6337 0.8855974,-2.0489 0.8586364,-8.84092 -0.039029,-9.83283 -0.403479,-0.44584 -0.5031767,-0.81217 -0.2652713,-0.9747 0.2096373,-0.14323 0.757809,-0.79995 1.2181602,-1.45938 0.6902926,-0.98882 0.8247354,-1.65573 0.7670059,-3.80481 -0.077613,-2.88926 0.1348925,-3.50068 1.216697,-3.50068 0.6479858,0 0.7336129,-0.27583 0.7333509,-2.36236 -2.645e-4,-2.5023 1.3960006,-10.43015 1.9439026,-11.0369 0.184274,-0.20407 0.324249,0.60595 0.324249,1.87638 0,2.12901 0.0315,2.20396 0.661459,1.574 0.535826,-0.53582 0.661458,-1.33405 0.661458,-4.20263 0,-1.94765 0.127569,-3.46235 0.283483,-3.36599 0.155916,0.0964 0.283482,1.42693 0.283482,2.95681 0,1.52988 0.103243,3.05064 0.229428,3.37948 0.203555,0.53045 1.825466,0.59787 14.382946,0.59787 h 14.15352 l -0.04004,-2.36235 c -0.02204,-1.29929 0.170392,-3.94884 0.427583,-5.88789 0.382689,-2.88524 0.377707,-3.58111 -0.0274,-3.83148 -0.403419,-0.24933 -0.385469,-0.61114 0.097,-1.95512 0.527178,-1.46852 1.672655,-9.72381 1.90713,-13.7444 0.04849,-0.83155 0.245774,-1.42687 0.438401,-1.32292 0.19263,0.10394 0.306499,0.52917 0.253045,0.94494 -0.156062,1.21382 1.412772,14.17236 1.804368,14.90406 0.227859,0.42576 0.219794,0.80285 -0.02233,1.04499 -0.208372,0.20838 -0.327977,1.54203 -0.265792,2.96368 l 0.113062,2.5848 1.039436,-1.57474 c 0.824177,-1.24863 1.031632,-1.98736 1.001758,-3.56722 -0.02072,-1.09586 -0.15544,-2.4155 -0.299368,-2.93252 -0.143931,-0.51702 -0.05699,-1.72916 0.193191,-2.69365 0.284625,-1.09726 0.48342,-5.3432 0.531135,-11.34418 0.05718,-7.19094 0.215257,-10.04053 0.63179,-11.3889 0.566907,-1.83521 1.248765,-2.09158 1.248765,-0.46954 0,0.49518 0.145357,0.99016 0.323008,1.09996 0.177652,0.10979 0.438762,-1.44715 0.580242,-3.45987 0.141484,-2.01273 0.404572,-3.75089 0.584642,-3.8626 0.483248,-0.29975 7.270896,-46.48118 7.007778,-47.67914 -0.245613,-1.11826 0.144611,-1.59395 0.916313,-1.11701 0.373115,0.2306 0.393189,0.4923 0.08232,1.07317 -0.318442,0.59502 0.390112,6.2401 3.142845,25.03917 1.954691,13.34903 3.737988,24.45497 3.962879,24.67986 0.224896,0.2249 0.408903,0.90598 0.408903,1.51352 0,0.93902 0.08499,1.03408 0.566965,0.63407 0.478829,-0.39739 0.566962,-0.32028 0.566962,0.49608 0,0.53164 0.199686,1.44544 0.443741,2.03066 0.536654,1.28683 0.545737,1.52995 0.667165,17.85264 0.09261,12.44846 0.289409,14.77241 1.250974,14.77241 0.192863,0 0.311071,-1.23315 0.262686,-2.74033 -0.04838,-1.50718 0.0159,-2.99546 0.142851,-3.30729 0.126953,-0.31183 0.548228,-3.54352 0.936173,-7.18155 0.50675,-4.75223 0.592833,-6.79816 0.305729,-7.2666 -0.290834,-0.47453 -0.269293,-0.78235 0.07913,-1.13077 0.652237,-0.65224 1.288626,0.31837 1.003112,1.52991 -0.1142,0.48457 0.239175,3.9714 0.785272,7.74851 0.593667,4.10614 0.896888,7.46821 0.754111,8.36153 -0.13134,0.82174 -0.121486,3.75578 0.02188,6.52009 l 0.260694,5.02602 h 13.90841 13.908413 l 0.1264,-1.60639 0.12639,-1.6064 0.25669,1.32291 c 0.14118,0.72761 0.36013,2.13414 0.48656,3.12562 0.29302,2.29797 0.93731,1.95284 0.93731,-0.50209 0,-1.02717 0.14598,-1.86758 0.32441,-1.86758 0.17842,0 0.54813,2.63639 0.82158,5.85864 0.41776,4.92304 0.59417,5.85863 1.10462,5.85863 0.90214,0 1.51939,2.04954 1.26475,4.19954 -0.19826,1.67397 -0.10432,2.0192 0.89161,3.277 l 1.11322,1.4059 -0.22976,4.7247 c -0.20142,4.14183 -0.13935,4.94619 0.50309,6.52009 0.40308,0.98746 0.86228,1.79539 1.02046,1.79539 0.15817,0 0.27946,0.3827 0.26952,0.85044 -0.0942,4.43268 0.54538,20.07147 0.85408,20.88341 0.21843,0.57451 0.29247,1.37436 0.16454,1.77745 -0.39916,1.25764 0.22114,5.21489 0.81743,5.21489 0.35356,0 0.52985,0.44015 0.52985,1.32291 v 1.32292 H 58.700105 1.6697845 Z m 22.4403396,-20.8246 c 0,-7.37826 -0.05995,-8.12216 -0.701292,-8.70256 -0.749538,-0.67833 -1.655326,-0.53426 -2.794989,0.44454 -0.589336,0.50615 -0.661459,1.39968 -0.661459,8.19502 0,4.19482 0.113395,7.74033 0.251987,7.87892 0.138589,0.13859 1.074081,0.25199 2.078868,0.25199 h 1.826885 z m 7.097712,-0.81453 c 0.102656,-8.48709 0.08596,-8.70916 -0.703334,-9.35492 -1.096708,-0.89726 -2.573324,-0.83202 -3.629689,0.16038 -0.864973,0.8126 -0.874808,0.91905 -0.874808,9.46668 v 8.64484 l 2.551338,-0.11177 2.55134,-0.11176 z m 15.202297,-0.28349 c -2.65e-4,-7.96917 -0.08687,-9.33865 -0.661459,-10.48884 -0.543382,-1.08772 -0.898162,-1.34289 -1.995593,-1.43529 -1.000419,-0.0842 -1.536028,0.1051 -2.13845,0.75595 -0.75982,0.82089 -0.818674,1.40008 -1.077224,10.60122 L 40.036,281.90812 h 3.073403 3.073402 l -7.93e-4,-9.16593 z m 7.285344,0.18899 c 0.236918,-9.73039 0.139197,-10.38566 -1.70285,-11.41822 -0.98288,-0.55095 -1.08239,-0.52915 -2.063631,0.4521 -1.285224,1.28522 -1.571636,3.64678 -1.605029,13.23398 l -0.02336,6.70908 h 2.588152 2.588149 z m 8.758415,-1.5119 c -0.257207,-10.32132 -0.276038,-10.50846 -1.178955,-11.71727 -1.682541,-2.25254 -4.702135,-1.14814 -5.425585,1.98438 -0.192043,0.83155 -0.353227,5.72161 -0.358188,10.86682 l -0.009,9.35491 h 3.616563 3.616558 z m 7.013373,1.09041 c 0,-8.93582 -0.03856,-9.44746 -0.783386,-10.39435 -1.052203,-1.33766 -2.313871,-1.27796 -3.52974,0.16702 l -0.97854,1.16292 -0.0042,7.81401 c -0.0024,4.2977 -0.109588,8.45184 -0.238443,9.23142 l -0.23428,1.41741 h 2.884276 2.884275 v -9.39843 z m 7.861187,-0.21022 c -0.112316,-9.57789 -0.115607,-9.61176 -1.029005,-10.58333 -1.139666,-1.21224 -2.65549,-1.26311 -3.702505,-0.12424 -0.731766,0.79596 -0.799261,1.474 -1.053502,10.58333 l -0.271645,9.73289 h 3.084669 3.084666 z m 11.924477,5.01359 c 0.135892,-2.52728 0.247075,-6.2562 0.247075,-8.28648 0,-3.41986 -0.07198,-3.77697 -0.97854,-4.85434 -1.082561,-1.28655 -2.194023,-1.47042 -3.473071,-0.57454 -0.827469,0.57958 -0.840055,0.72117 -0.840055,9.44941 v 8.86101 h 2.398757 2.39876 z m 5.904698,-3.24795 c -0.01288,-8.40109 -0.170567,-9.16592 -1.889768,-9.16592 -0.480431,0 -1.184558,0.28149 -1.56473,0.62554 -0.627531,0.56791 -0.691221,1.35153 -0.691221,8.50447 v 7.87892 h 2.078871 2.078868 z M 17.456617,250.89012 v -3.04776 l -1.228423,0.11845 -1.228423,0.11844 -0.110392,2.92931 -0.110395,2.92932 h 1.338815 1.338818 z m 4.076031,-1.01548 c -0.104087,-3.94223 -0.133755,-4.06699 -0.996172,-4.18907 -0.488892,-0.0692 -1.296816,-0.0234 -1.795388,0.10169 -0.844921,0.21207 -0.906212,0.40034 -0.902335,2.77166 0.0024,1.39927 0.109587,3.18197 0.238442,3.96155 0.229391,1.38781 0.269039,1.41741 1.89851,1.41741 h 1.664224 z m 4.995397,-1.04754 c 0,-5.10632 -7.94e-4,-5.11117 -0.96017,-5.54827 -0.650034,-0.29617 -1.290987,-0.32171 -1.984375,-0.0791 -0.920962,0.32229 -1.036746,0.56724 -1.148612,2.42997 -0.06842,1.13935 -0.01064,3.47478 0.128426,5.18985 l 0.25283,3.1183 h 1.855949 1.855952 z m 4.913691,1.34431 c 0,-4.09065 -0.240382,-4.54901 -2.385717,-4.54901 -1.558655,0 -1.781384,0.68308 -1.520036,4.66172 l 0.240006,3.65376 h 1.832872 1.832875 z m 3.023809,0.95396 c 0,-2.99683 -0.250471,-3.44393 -1.722374,-3.0745 -0.876345,0.21994 -0.92346,0.37603 -0.92346,3.05939 v 2.82762 h 1.322917 1.322917 z m 48.547847,0.0722 c -0.28112,-2.99915 -0.493294,-3.44491 -1.544158,-3.24415 -0.599575,0.11455 -0.717659,0.55944 -0.811999,3.05926 l -0.110394,2.92522 h 1.361704 1.361699 z m 4.665522,-1.12563 c -0.106531,-3.82356 -0.118948,-3.8699 -1.131921,-4.22535 -0.670269,-0.23519 -1.323359,-0.22342 -1.889882,0.0341 -0.831887,0.3781 -0.861007,0.54303 -0.746077,4.22535 l 0.119596,3.83188 h 1.878002 1.878002 l -0.10772,-3.86595 z m 4.994963,-1.00145 c 0,-5.49616 -0.154233,-5.84103 -2.524961,-5.64582 l -1.443789,0.11888 -0.105161,5.19718 -0.105159,5.19717 h 2.089534 2.089536 z m 4.535715,1.07954 c 0,-3.67359 -0.0285,-3.80085 -0.944941,-4.2184 -0.706876,-0.32208 -1.183005,-0.32208 -1.889881,0 -0.874969,0.39866 -0.944941,0.62356 -0.944941,3.03723 0,1.43368 0.106307,3.13822 0.236236,3.78786 0.221385,1.10693 0.340177,1.18118 1.889881,1.18118 h 1.653646 z m 3.779768,0.99713 c 0,-2.40174 -0.0979,-2.81633 -0.70228,-2.97438 -1.487305,-0.38895 -1.94356,0.34772 -1.94356,3.13807 v 2.62705 h 1.322916 1.322924 z m -49.410864,-1.46149 c -0.19221,-4.68564 -0.229331,-4.8192 -1.339483,-4.8192 -1.544166,0 -1.78835,0.65544 -1.78835,4.8003 v 3.89315 h 1.64338 1.643377 z m 5.565621,-1.78209 c 0,-6.24727 -0.07626,-6.4389 -2.562405,-6.4389 -2.022983,0 -2.242751,0.71725 -2.055683,6.70908 l 0.168159,5.38616 h 2.224963 2.224966 z m 6.047618,-1.52521 c 0,-6.67758 -0.05305,-7.23459 -0.755951,-7.9375 -0.939258,-0.93925 -2.670453,-0.97426 -3.779235,-0.0764 -0.832741,0.67432 -0.837035,0.73508 -0.560615,7.9375 l 0.278554,7.25798 h 2.408623 2.408624 z m 5.669643,1.72233 c 0,-5.21292 -0.0379,-5.48577 -0.840055,-6.04762 -1.101582,-0.77158 -2.285804,-0.74527 -3.288318,0.0731 -0.78345,0.63951 -0.801722,0.84018 -0.550627,6.04762 l 0.259707,5.38616 h 2.209649 2.209644 z m 4.252232,4.98675 c -0.05197,-0.15591 -0.09449,-1.96454 -0.09449,-4.01916 0,-3.51093 -0.04916,-3.74853 -0.81706,-3.94934 -0.449384,-0.11752 -1.129742,-0.0463 -1.511906,0.1582 -0.606891,0.3248 -0.694846,0.8753 -0.694846,4.34905 v 3.97719 l 1.606399,-0.11623 c 0.883521,-0.0639 1.563878,-0.24379 1.511906,-0.39971 z M 51.768334,229.31551 c -0.08835,-4.50352 -0.204081,-5.40806 -0.73465,-5.74222 -0.456583,-0.28756 -0.794403,-0.26 -1.228421,0.1002 -0.493585,0.40964 -0.598646,1.41738 -0.598646,5.74222 v 5.24538 h 1.333294 1.333293 z m 4.619829,-1.99795 c 0,-7.91234 -0.147334,-8.53147 -2.030273,-8.53147 -1.646443,0 -1.749488,0.49423 -1.749488,8.39107 v 7.48393 h 1.889882 1.889879 z m 5.49071,-2.38935 c -0.152972,-5.35309 -0.436404,-10.03055 -0.629859,-10.39435 -0.546061,-1.0269 -2.447216,-0.85735 -3.195709,0.285 -0.55281,0.8437 -0.589966,1.97228 -0.342181,10.39435 l 0.277966,9.44788 h 2.083951 2.083954 z m 5.092623,2.37106 v -7.36182 l -0.944941,-0.61915 c -0.875342,-0.57355 -1.014537,-0.57355 -1.889879,0 l -0.944941,0.61915 v 7.10984 c 0,3.91041 0.113393,7.22323 0.251984,7.36182 0.138589,0.13859 0.989036,0.25198 1.889882,0.25198 h 1.637895 z m 3.695647,1.97566 -0.104873,-5.38616 h -1.133927 -1.13393 l -0.104873,5.38616 -0.104871,5.38616 h 1.343674 1.34367 z m -8.532111,-35.71875 c 0.0916,-2.091 -0.05252,-2.87527 -0.798756,-4.34672 -0.500785,-0.98747 -1.011052,-1.79176 -1.133928,-1.78732 -0.122877,0.004 -0.691157,0.66945 -1.262845,1.4778 -0.913543,1.29173 -1.039434,1.81721 -1.039434,4.33866 v 2.86892 h 2.061599 2.061598 z"
       id="path1644"
       inkscape:connector-curvature="0" />
  </g>
</svg>
