<?xml version="1.0" encoding="UTF-8" standalone="no"?>
<!-- Created with Inkscape (http://www.inkscape.org/) -->

<svg
   xmlns:dc="http://purl.org/dc/elements/1.1/"
   xmlns:cc="http://creativecommons.org/ns#"
   xmlns:rdf="http://www.w3.org/1999/02/22-rdf-syntax-ns#"
   xmlns:svg="http://www.w3.org/2000/svg"
   xmlns="http://www.w3.org/2000/svg"
   xmlns:xlink="http://www.w3.org/1999/xlink"
   xmlns:sodipodi="http://sodipodi.sourceforge.net/DTD/sodipodi-0.dtd"
   xmlns:inkscape="http://www.inkscape.org/namespaces/inkscape"
   width="150mm"
   height="76.000008mm"
   viewBox="0 0 150 76.00001"
   version="1.1"
   id="svg1565"
   inkscape:version="0.92.4 (5da689c313, 2019-01-14)"
   sodipodi:docname="digital.svg">
  <defs
     id="defs1559" />
  <sodipodi:namedview
     id="base"
     pagecolor="#ffffff"
     bordercolor="#666666"
     borderopacity="1.0"
     inkscape:pageopacity="0.0"
     inkscape:pageshadow="2"
     inkscape:zoom="0.7"
     inkscape:cx="204.54133"
     inkscape:cy="215.71632"
     inkscape:document-units="mm"
     inkscape:current-layer="layer3"
     showgrid="false"
     inkscape:window-width="1366"
     inkscape:window-height="705"
     inkscape:window-x="-8"
     inkscape:window-y="-8"
     inkscape:window-maximized="1" />
  <metadata
     id="metadata1562">
    <rdf:RDF>
      <cc:Work
         rdf:about="">
        <dc:format>image/svg+xml</dc:format>
        <dc:type
           rdf:resource="http://purl.org/dc/dcmitype/StillImage" />
        <dc:title></dc:title>
      </cc:Work>
    </rdf:RDF>
  </metadata>
  <g
     inkscape:label="Layer 1"
     inkscape:groupmode="layer"
     id="layer1"
     sodipodi:insensitive="true"
     style="display:none"
     transform="translate(0,-220.99978)">
    <image
       sodipodi:absref="C:\Users\Utopia\Desktop\digital-architecture-modern-technologies-in-architecture-10-638.jpg"
       xlink:href="digital-architecture-modern-technologies-in-architecture-10-638.jpg"
       width="168.80417"
       height="126.73542"
       preserveAspectRatio="none"
       id="image2118"
       x="-0.49137369"
       y="182.98347" />
  </g>
  <g
     inkscape:groupmode="layer"
     id="layer3"
     inkscape:label="Layer 2"
     transform="translate(0,-220.99978)">
    <path
       style="fill:none;stroke:#000000;stroke-width:0.26458332px;stroke-linecap:butt;stroke-linejoin:miter;stroke-opacity:1"
       d="m 36.115617,235.20089 c 0,0 -3.145337,5.14747 -4.252233,7.9375 -0.757954,1.91049 -1.261199,3.92697 -1.606399,5.95313 -0.5729,3.36265 -0.783084,6.79435 -0.755952,10.20535 0.02792,3.51033 0.222489,7.05354 0.944941,10.48883 0.690819,3.28487 1.774836,6.51079 3.212799,9.54392 1.370208,2.89021 3.001587,5.71481 5.102677,8.12649 2.349819,2.69718 8.220982,6.89806 8.220982,6.89806 0,0 -7.326207,0.54868 -10.772322,-0.47247 -2.558643,-0.75818 -4.660457,-2.6091 -6.898066,-4.06326 -1.363167,-0.88589 -2.70304,-1.81453 -3.96875,-2.83482 -1.423577,-1.14755 -2.547131,-2.66307 -4.063243,-3.68525 -0.841021,-0.56703 -1.731017,-1.22228 -2.740327,-1.32292 -1.261903,-0.12582 -2.603737,0.28272 -3.685267,0.94493 -1.218035,0.74579 -2.154595,1.95698 -2.834822,3.21281 -0.731554,1.35059 0.03006,3.5606 -1.228423,4.44122 -1.2944827,0.90581 -3.1448225,-0.39112 -4.7246996,-0.37798 -0.9809644,0.008 -2.0894198,0.79036 -2.9293135,0.28347 -0.6410034,-0.38686 -0.7096204,-1.34353 -0.8504464,-2.07886 -2.39958541,-12.52961 -0.2263537,-25.52709 0.3779757,-38.27009 0.07038,-1.48409 0.11974,-2.97808 0.377976,-4.44122 0.2722477,-1.54253 0.5532957,-3.1223 1.2284221,-4.53571 0.4860917,-1.01765 1.0800264,-2.06649 1.9843741,-2.74033 0.5351987,-0.39878 1.2226631,-0.64457 1.8898798,-0.66146 1.1159344,-0.0282 2.2944718,0.31028 3.2127968,0.94494 1.331891,0.92047 2.018527,2.53573 2.929315,3.87426 1.701807,2.50104 3.042581,5.23419 4.724702,7.74851 0.889798,1.33001 2.834822,3.87425 2.834822,3.87425 z"
       id="path2124"
       inkscape:connector-curvature="0"
       sodipodi:nodetypes="caaaaaacaaaasaaaaaasaaaaaaacc" />
    <path
       style="fill:none;stroke:#000000;stroke-width:0.26458332px;stroke-linecap:butt;stroke-linejoin:miter;stroke-opacity:1"
       d="m 46.982432,294.35417 c 0,0 -3.26408,-2.44093 -4.819197,-3.75613 -1.174534,-0.99333 -2.354861,-1.9913 -3.401785,-3.11833 -0.648674,-0.69831 -1.230179,-1.45994 -1.771764,-2.24422 -0.730544,-1.05792 -1.984375,-3.30729 -1.984375,-3.30729 l -2.007997,-3.99238 -1.536406,-4.22169 -1.169302,-4.54356 c 0,0 -0.408876,-2.91224 -0.534541,-4.37655 -0.172561,-2.01076 -0.311125,-4.02885 -0.300677,-6.04697 0.01057,-2.04158 0.175281,-4.08126 0.367495,-6.1138 0.155405,-1.64331 0.286328,-3.29762 0.634765,-4.91107 0.208954,-0.96757 0.595147,-1.8884 0.868627,-2.83974 0.165685,-0.57636 0.260702,-1.17441 0.46772,-1.73725 0.395508,-1.0753 1.469982,-3.10701 1.469982,-3.10701 0,0 1.706316,-3.35629 2.85064,-4.83729 1.164575,-1.50721 2.525204,-2.88373 4.031551,-4.04942 1.602185,-1.23985 3.323504,-2.42879 5.245164,-3.07024 1.392953,-0.46497 2.909512,-0.57041 4.376539,-0.50449 1.999697,0.0899 3.992798,0.55238 5.87993,1.21991 1.983787,0.70171 3.750001,1.91042 5.612659,2.88936 1.689154,0.88775 3.383165,1.7677 5.044713,2.7061 3.843747,2.17086 7.487884,4.69182 11.386825,6.76191 3.198331,1.69811 6.504018,3.19209 9.827381,4.6302 1.336637,0.5784 4.063219,1.6064 4.063219,1.6064 0,0 5.915237,-5.46241 9.118632,-7.89025 3.58931,-2.72031 7.38816,-5.16939 11.27355,-7.44687 3.97894,-2.33232 7.9857,-4.70243 12.2944,-6.34765 3.82536,-1.46066 7.82442,-2.61583 11.8935,-3.0736 2.30277,-0.25906 4.64992,-0.0895 6.949,0.20045 1.40453,0.17714 2.44905,0.31334 3.47451,0.93545 0.47842,0.29025 0.83153,0.76654 1.13589,1.23612 0.38255,0.59021 0.6701,1.25401 0.83522,1.9377 0.42972,1.77929 0.30737,3.64957 0.3675,5.47903 0.079,2.40413 0.0359,4.81127 -0.009,7.21627 -0.0461,2.46229 -0.1491,4.92344 -0.26727,7.38333 -0.15845,3.29843 -0.37563,6.59385 -0.59226,9.88897 -0.40917,6.22379 -0.43685,12.49187 -1.33634,18.66389 -0.17331,1.18917 -0.35397,2.39607 -0.77958,3.51991 -0.26465,0.69881 -0.58693,1.4052 -1.08668,1.96075 -0.431,0.47913 -0.98572,0.8677 -1.58277,1.11032 -0.73159,0.29729 -1.55017,0.3357 -2.33873,0.37796 -2.22056,0.119 -6.66183,-0.35436 -6.66183,-0.35436 0,0 -1.02346,2.54312 -1.7157,3.72028 -0.72714,1.2365 -1.52594,2.45898 -2.53906,3.47448 -1.24907,1.252 -2.64758,2.45129 -4.27632,3.14042 -1.72654,0.73051 -3.67151,0.97423 -5.54584,0.93546 -2.36709,-0.049 -4.73712,-0.62557 -6.94901,-1.46999 -1.46336,-0.55866 -2.82171,-1.40018 -4.07585,-2.3386 -4.09912,-3.0672 -7.57433,-6.90394 -11.091678,-10.62398 -6.565851,-6.94425 -12.365396,-14.57567 -18.641992,-21.78246 -4.124141,-4.73534 -8.057718,-9.65506 -12.494853,-14.09846 -2.046102,-2.04899 -4.146413,-4.07449 -6.493102,-5.77094 -2.31609,-1.67433 -4.690575,-3.44507 -7.417784,-4.29947 -2.020625,-0.63304 -4.274821,-1.02507 -6.331101,-0.51972 -2.460943,0.60479 -4.660007,2.24535 -6.425594,4.06324 -1.671486,1.721 -2.695324,3.9995 -3.667509,6.1928 -1.03914,2.34435 -1.732052,4.84302 -2.271792,7.34991 -0.680311,3.15979 -1.135318,6.39021 -1.202711,9.6217 -0.06477,3.1058 0.133426,6.24693 0.769383,9.28761 0.626494,2.99544 1.644502,5.92912 2.972389,8.68627 1.203742,2.49938 2.636108,4.94028 4.476766,7.01582 1.395886,1.57402 3.475038,3.26609 4.876599,4.00662 1.401561,0.74053 2.016957,0.73537 3.071056,0.89767 2.942554,0.45306 8.929687,0.189 8.929687,0.189 l -0.661458,0.66145 7.417781,-0.23624 -0.519716,0.94496 6.756324,-0.42524 -0.755952,1.18118 6.142111,-0.75594 -0.330729,0.56695 5.905879,-0.189 -0.04725,0.70872 4.819197,-0.33073 0.09955,0.53141 3.808573,0.0668 v 0.73498 l 3.340849,-0.20044 0.0668,1.06907 z"
       id="path2126"
       inkscape:connector-curvature="0"
       sodipodi:nodetypes="csssccccsssssscaaaaassaacaasssaaaaaasaaaaacaaaaaasaaaaaaaaaaaazsccccccccccccccccc" />
    <path
       style="opacity:0;fill:none;stroke:#000000;stroke-width:0.26458332px;stroke-linecap:butt;stroke-linejoin:miter;stroke-opacity:1"
       d="m 135.47604,278.0067 c 0,0 3.40596,1.23417 4.91369,0.56695 0.69144,-0.30598 1.02645,-1.14706 1.32291,-1.84264 0.50866,-1.19347 0.59009,-2.53506 0.70871,-3.82698 0.3643,-3.96781 0.13302,-7.97123 0,-11.95351 -0.16546,-4.95347 -0.99219,-14.83557 -0.99219,-14.83557 0,0 -1.30568,8.12425 -1.93712,12.18973 -0.35449,2.28237 -0.62638,4.57831 -1.03944,6.85081 -0.38004,2.09087 -0.84465,4.16602 -1.32292,6.23663 -0.51149,2.21441 -1.65364,6.61458 -1.65364,6.61458 z"
       id="path2128"
       inkscape:connector-curvature="0"
       sodipodi:nodetypes="csssacsssc" />
    <path
       style="opacity:0;fill:none;stroke:#000000;stroke-width:0.26458332px;stroke-linecap:butt;stroke-linejoin:miter;stroke-opacity:1"
       d="m 126.14107,292.45642 13.76438,-0.13364 1.40317,-9.82215 -7.03728,-0.31259 c 0,0 -0.76892,1.9861 -1.24808,2.93516 -0.29138,0.57712 -0.62845,1.13152 -0.98556,1.67045 -0.50134,0.75659 -1.02584,1.50243 -1.62032,2.18826 -0.46163,0.53256 -0.96504,1.03184 -1.50339,1.48669 -0.75724,0.63979 -2.41489,1.73583 -2.41489,1.73583 z"
       id="path2130"
       inkscape:connector-curvature="0"
       sodipodi:nodetypes="ccccsssscc" />
    <path
       style="opacity:0;fill:none;stroke:#000000;stroke-width:0.26458332px;stroke-linecap:butt;stroke-linejoin:miter;stroke-opacity:1"
       d="m 117.72208,293.39185 -23.394407,0.26728 -0.12519,-0.53456 -3.340849,0.20042 V 292.59 l -3.808575,-0.0668 -0.09955,-0.53141 -4.819198,0.33073 0.04725,-0.70872 -5.905878,0.189 0.330729,-0.56695 -6.142111,0.75594 0.755954,-1.18118 -6.756326,0.42524 0.519716,-0.94496 -7.417779,0.23624 0.661456,-0.66145 c 0,0 -4.934505,0.1787 -7.389373,-0.0229 -1.231609,-0.10117 -2.5023,-0.15987 -3.659439,-0.5936 -1.184616,-0.44403 -3.222752,-2.00454 -3.222752,-2.00454 0,0 -1.680763,-1.64467 -2.453981,-2.52888 -0.804714,-0.92023 -1.603749,-1.85574 -2.267858,-2.88206 -1.255229,-1.93985 -2.330555,-4.00663 -3.212796,-6.14211 -0.850204,-2.05793 -1.470946,-4.21173 -1.984375,-6.37837 -0.423281,-1.78622 -0.767467,-3.60234 -0.897694,-5.4334 -0.154219,-2.1684 -0.03239,-4.3532 0.14174,-6.52009 0.164313,-2.04471 0.47339,-4.07851 0.850448,-6.09486 0.303342,-1.62215 0.659224,-3.23868 1.133927,-4.8192 0.419945,-1.39821 0.925386,-2.77358 1.511906,-4.11049 0.526337,-1.19973 1.116729,-2.37566 1.795386,-3.49628 0.339525,-0.56064 0.708053,-1.10818 1.13393,-1.6064 0.499333,-0.58415 1.074212,-1.1016 1.653646,-1.6064 0.752993,-0.656 1.499483,-1.33985 2.36235,-1.84263 1.031031,-0.60077 2.141534,-1.1153 3.307292,-1.37017 0.816017,-0.1784 1.67226,-0.17044 2.504093,-0.0945 1.510618,0.1379 3.028974,0.43852 4.441219,0.99219 1.747786,0.68522 3.316205,1.77603 4.866445,2.83482 1.610651,1.10005 3.128977,2.33793 4.582961,3.63802 2.840381,2.53975 5.486694,5.29547 8.060124,8.10537 2.380601,2.59935 4.548623,5.38569 6.815373,8.0849 2.857239,3.40235 5.663232,6.84797 8.552624,10.22306 2.483985,2.90154 5.01017,5.76695 7.550325,8.61944 1.898068,2.13146 3.772919,4.28568 5.746267,6.34764 1.88385,1.96842 3.79057,3.92068 5.81311,5.7463 1.09232,0.98597 2.18836,1.98259 3.40769,2.80633 1.15625,0.78112 2.40153,1.43405 3.67495,2.00454 1.51084,0.67686 4.67722,1.67048 4.67722,1.67048 z"
       id="path2132"
       inkscape:connector-curvature="0"
       sodipodi:nodetypes="cccccccccccccccccaacssssssssssssssssssssaaasaacc" />
    <path
       style="opacity:0;fill:none;stroke:#000000;stroke-width:0.26458332px;stroke-linecap:butt;stroke-linejoin:miter;stroke-opacity:1"
       d="m 10.947973,290.71916 c 0,0 5.297573,1.17336 7.951267,1.73726 2.04661,0.4349 4.069083,1.02625 6.1472,1.26952 3.762266,0.44041 11.358956,0.33409 11.358956,0.33409 0,0 -2.50193,-1.10676 -3.674956,-1.80406 -0.563081,-0.33472 -1.064553,-0.76375 -1.603619,-1.13591 -1.214959,-0.83879 -2.475102,-1.61198 -3.674954,-2.47224 -0.865248,-0.62036 -1.741556,-1.23237 -2.53906,-1.9377 -1.001911,-0.88611 -1.754497,-2.04169 -2.805933,-2.86843 -0.763294,-0.60018 -1.610636,-1.10806 -2.504091,-1.48828 -0.353197,-0.15031 -0.728592,-0.26498 -1.110305,-0.30543 -0.685788,-0.0727 -1.397981,-0.0547 -2.065481,0.11855 -0.742418,0.19274 -1.455582,0.54491 -2.071338,1.00227 -0.607388,0.45114 -1.092229,1.0582 -1.536799,1.67042 -0.360371,0.49627 -0.687663,1.02902 -0.902036,1.60364 -0.174814,0.46859 -0.212513,0.97767 -0.300677,1.46997 -0.103283,0.57672 -0.08303,1.18108 -0.26727,1.73726 -0.09843,0.29713 -0.439547,0.82981 -0.439547,0.82981 z"
       id="path2134"
       inkscape:connector-curvature="0"
       sodipodi:nodetypes="csscsssaaaaaasaascc" />
    <path
       style="fill:#a0a0a0;stroke:none;stroke-width:0.1889881"
       d="m 44.944675,292.52701 c -6.175406,-4.89477 -7.766798,-6.76431 -10.632072,-12.49056 -2.009714,-4.01637 -3.500942,-8.76623 -4.098131,-13.0533 -0.154247,-1.10728 -0.3326,-3.88423 -0.396343,-6.17098 -0.20991,-7.53038 0.605361,-13.49013 2.468941,-18.04837 0.580599,-1.42012 2.636014,-5.20362 3.798752,-6.99255 2.185379,-3.36232 7.392609,-7.18656 10.582434,-7.77185 1.788671,-0.32819 5.176173,-0.1023 7.181548,0.47889 2.5967,0.75257 9.007062,4.08162 15.969493,8.29333 2.234785,1.35187 4.786125,2.88165 5.669645,3.39952 3.32862,1.95105 10.888052,5.49587 14.930055,7.0011 l 1.228411,0.45746 2.834805,-2.54086 c 6.556157,-5.87632 11.161167,-9.15198 19.996357,-14.22393 7.94796,-4.56262 14.09238,-6.89375 20.73054,-7.86496 3.47692,-0.50869 9.07265,-0.0975 10.91345,0.80194 0.78063,0.38143 1.80068,1.74863 2.1371,2.86442 0.69203,2.29523 0.53131,17.49317 -0.29915,28.28723 -0.056,0.7276 -0.27044,4.51209 -0.47657,8.40997 -0.66538,12.58185 -1.27153,16.05107 -3.09876,17.73535 -1.20415,1.10995 -1.8533,1.22867 -6.05776,1.10792 -1.97493,-0.0567 -3.7213,-0.15455 -3.88082,-0.21739 -0.22182,-0.0874 -0.4647,0.29351 -1.03253,1.61928 -1.91691,4.47553 -5.29196,7.96417 -8.77466,9.06994 -1.93698,0.615 -5.07799,0.68795 -7.55851,0.17553 -4.80924,-0.99349 -7.47633,-2.63946 -13.01107,-8.02966 -5.205941,-5.06999 -9.19973,-9.5046 -17.115079,-19.00412 -17.125889,-20.55339 -21.924544,-25.62933 -28.423542,-30.06595 -3.878535,-2.64773 -6.826829,-3.67481 -10.142352,-3.53322 -2.157537,0.0921 -3.438406,0.51977 -5.342739,1.78372 -3.471603,2.3042 -5.717556,5.66211 -7.628085,11.40473 -1.520288,4.56965 -2.259587,8.94381 -2.395673,14.17432 -0.193172,7.42478 0.783315,12.20292 3.745362,18.32675 1.623026,3.3555 3.030366,5.50085 4.875845,7.4327 2.496643,2.6135 4.756227,4.05231 7.009064,4.46305 0.675635,0.12319 2.950443,0.27479 5.055132,0.33689 3.245387,0.0958 3.793437,0.15303 3.607697,0.37685 -0.186809,0.22508 0.330641,0.24434 3.519212,0.13089 l 3.738221,-0.13301 -0.22693,0.42402 c -0.124812,0.2332 -0.198779,0.45035 -0.164373,0.48249 0.03441,0.0322 1.040572,-0.0127 2.235922,-0.0998 1.195351,-0.087 2.664331,-0.16317 3.2644,-0.16915 l 1.091042,-0.0109 -0.313442,0.4784 c -0.172392,0.2631 -0.279879,0.51191 -0.238863,0.55292 0.04101,0.041 1.306944,-0.0861 2.813172,-0.28252 1.506233,-0.19643 2.802387,-0.3602 2.880344,-0.36396 0.07796,-0.004 0.14174,0.10687 0.14174,0.24588 0,0.20391 0.565552,0.23553 2.929316,0.1637 2.709545,-0.0824 2.929315,-0.0639 2.929315,0.24532 0,0.30937 0.178539,0.32422 2.388563,0.1983 1.859373,-0.10594 2.421827,-0.0823 2.538707,0.10687 0.09926,0.1606 0.762867,0.26974 1.95816,0.322 1.591841,0.0696 1.808008,0.12012 1.808008,0.42224 0,0.3143 0.14305,0.33391 1.700881,0.23297 1.498381,-0.0971 1.700891,-0.0731 1.700891,0.20127 0,0.28548 -0.862687,0.31147 -10.34707,0.3116 -5.690905,8e-5 -16.257702,0.048 -23.481771,0.1066 l -13.134671,0.10641 z"
       id="path2136"
       inkscape:connector-curvature="0" />
    <path
       style="fill:#ffffff;fill-opacity:1;stroke:none;stroke-width:0.1889881"
       d="m 39.544593,294.15771 c -2.120897,-0.15232 -3.691204,-0.52059 -4.965885,-1.16467 -0.860224,-0.43463 -6.593073,-4.29783 -8.321164,-5.60739 -0.623663,-0.4726 -1.946355,-1.62735 -2.93932,-2.56609 -0.992963,-0.93874 -2.307849,-2.00445 -2.921963,-2.36826 -0.981818,-0.58163 -1.265716,-0.65981 -2.352347,-0.64788 -1.734045,0.019 -3.17241,0.62013 -4.417326,1.84594 -1.505834,1.48273 -2.009629,2.48725 -2.207027,4.4005 -0.153088,1.48381 -0.340455,2.01038 -0.84803,2.38329 -0.316234,0.23233 -1.5818334,0.16142 -2.8075405,-0.15732 -1.1125574,-0.28933 -1.4807831,-0.28477 -3.7162909,0.046 -0.9308634,0.13772 -1.2231694,-0.26902 -1.5815641,-2.20083 -1.2660124,-6.824 -1.3470384,-14.15774 -0.303808,-27.49777 0.203217,-2.59859 0.4979937,-6.80962 0.6550587,-9.35786 0.3714657,-6.02668 0.7455167,-8.12889 1.8321511,-10.2969 1.0143624,-2.02382 2.1488388,-2.92932 3.6700739,-2.92932 2.7643938,0 3.6149758,0.90433 8.3545308,8.88244 1.733482,2.91798 4.882359,7.54462 5.14218,7.55539 0.05197,0.002 2.552475,-3.27148 5.556668,-7.27474 3.004196,-4.00327 5.493475,-7.24737 5.531728,-7.20912 0.03825,0.0383 -0.227846,0.69858 -0.591333,1.46739 -3.333324,7.05028 -4.061431,20.82334 -1.604547,30.35208 1.091248,4.23228 3.313306,9.28529 5.675688,12.90661 1.436016,2.20131 4.462082,5.25204 7.592105,7.65403 l 2.216431,1.7009 -1.274308,0.11827 c -1.642578,0.15242 -2.88027,0.14446 -5.374161,-0.0346 z"
       id="path2138"
       inkscape:connector-curvature="0" />
    <path
       style="fill:#ffffff;fill-opacity:0.99074073;stroke:none;stroke-width:0.1889881"
       d="m 46.583928,293.74335 c -0.155736,-0.1819 -0.371364,-0.33073 -0.479176,-0.33073 -0.10781,0 -0.307414,-0.17838 -0.443564,-0.3964 -0.136149,-0.21799 -0.283519,-0.36039 -0.32749,-0.31641 -0.04397,0.044 -0.44204,-0.23646 -0.884598,-0.6232 -0.44256,-0.38672 -1.734732,-1.50125 -2.871496,-2.47671 -1.136761,-0.97544 -2.608538,-2.45142 -3.27061,-3.27991 -0.662072,-0.82849 -1.381604,-1.71895 -1.598962,-1.97879 -0.217355,-0.25988 -0.379256,-0.49562 -0.35978,-0.52391 0.01947,-0.0283 -0.34784,-0.75448 -0.816261,-1.61382 -0.468423,-0.85932 -1.207262,-2.32447 -1.641866,-3.25588 -0.434605,-0.93139 -0.863238,-1.72199 -0.952519,-1.75684 -0.08928,-0.0349 -0.120295,-0.13142 -0.06892,-0.21452 0.122862,-0.19881 -0.273849,-1.3285 -0.466519,-1.3285 -0.08222,0 -0.137689,-0.10631 -0.123253,-0.23622 0.03071,-0.27641 -1.042461,-3.97126 -1.193901,-4.11052 -0.05652,-0.052 -0.114474,-0.26458 -0.12878,-0.47246 -0.01431,-0.20788 -0.205658,-1.3857 -0.425226,-2.61737 -0.219564,-1.23166 -0.399208,-2.68451 -0.399208,-3.22855 0,-0.54402 -0.0457,-1.03485 -0.101563,-1.09071 -0.238689,-0.23868 -0.0715,-9.78107 0.211238,-12.05667 0.161435,-1.29929 0.309105,-2.68078 0.328157,-3.06999 0.01905,-0.38919 0.08141,-0.70811 0.138568,-0.7087 0.08461,-0.001 0.554307,-1.81636 0.660352,-2.55241 0.01498,-0.10394 0.129247,-0.43817 0.253939,-0.74272 0.124693,-0.30455 0.244258,-0.72978 0.265706,-0.94494 0.02143,-0.21516 0.145296,-0.50359 0.275227,-0.64094 0.207381,-0.21923 0.275098,-0.49931 0.220094,-0.91031 -0.0089,-0.0663 0.06474,-0.17265 0.1636,-0.23624 0.280278,-0.1803 0.98426,-1.66123 0.852379,-1.79311 -0.06484,-0.0649 -0.03118,-0.1179 0.07481,-0.1179 0.105987,0 0.768893,-1.0177 1.473124,-2.26156 1.461156,-2.58078 2.896618,-4.36729 4.712493,-5.86493 1.83219,-1.51109 4.445789,-3.1057 5.764017,-3.51674 0.630626,-0.19663 1.14745,-0.40004 1.148498,-0.45201 0.0045,-0.22334 6.235999,0.0347 6.237116,0.25828 2.64e-4,0.0901 0.170907,0.1193 0.378793,0.0649 0.207888,-0.0544 0.377976,-0.0373 0.377976,0.0379 0,0.0752 0.462245,0.28249 1.02721,0.46058 0.564965,0.17809 2.138291,0.87183 3.496278,1.54164 1.35799,0.66981 2.470375,1.15621 2.471965,1.08088 0.0016,-0.0753 0.06538,-0.0476 0.14174,0.0617 0.219268,0.3137 2.257132,1.39983 2.385539,1.27142 0.06361,-0.0636 0.11566,-0.0114 0.11566,0.11598 0,0.1274 0.07778,0.18357 0.172847,0.12481 0.09507,-0.0588 0.201372,-0.0294 0.236236,0.0651 0.03486,0.0946 1.424062,0.9575 3.087105,1.9176 1.663044,0.9601 3.215108,1.87104 3.449032,2.02431 0.233926,0.15327 0.425318,0.21012 0.425318,0.12633 0,-0.0838 0.106304,-0.0205 0.236233,0.14067 0.29501,0.36592 5.064162,3.23489 5.386162,3.24015 0.129929,0.002 0.236234,0.0797 0.236234,0.1725 0,0.0927 0.08505,0.11608 0.188989,0.0518 0.103944,-0.0642 0.188989,-0.0431 0.188989,0.0469 0,0.20939 3.02283,1.82725 3.026701,1.61993 0.0016,-0.0852 0.06538,-0.06 0.141743,0.0561 0.186705,0.28383 3.013329,1.57616 3.149523,1.43996 0.0592,-0.0592 0.107627,-0.003 0.107627,0.12402 0,0.1274 0.08505,0.17908 0.188989,0.11483 0.103942,-0.0642 0.188987,-0.0333 0.188987,0.0687 0,0.18417 1.287661,0.70572 1.559152,0.63151 0.07796,-0.0213 0.14174,0.0397 0.14174,0.13559 0,0.16378 1.332066,0.69609 1.490777,0.59573 0.04035,-0.0255 0.125394,0.0349 0.188989,0.13434 0.06359,0.0994 1.119137,0.5813 2.345655,1.07089 1.914218,0.76411 2.275335,0.85455 2.550085,0.63862 0.176027,-0.13835 1.426191,-1.23034 2.778135,-2.42662 4.384873,-3.88003 7.435947,-6.27512 11.057007,-8.67975 0.98746,-0.65575 1.88043,-1.29659 1.98438,-1.42409 0.10394,-0.1275 0.23346,-0.22338 0.28781,-0.21307 0.17612,0.0334 5.09834,-2.94962 5.09834,-3.08978 0,-0.0747 0.10631,-0.13805 0.23624,-0.14086 0.12993,-0.003 1.17173,-0.5336 2.3151,-1.17955 2.7321,-1.54348 6.95718,-3.58835 9.02419,-4.36755 0.9095,-0.34286 1.65364,-0.69113 1.65364,-0.77395 0,-0.0828 0.12757,-0.10162 0.28348,-0.0418 0.15592,0.0598 0.28349,0.0173 0.28349,-0.0945 0,-0.1118 0.12756,-0.15432 0.28348,-0.0945 0.15591,0.0598 0.28348,0.0241 0.28348,-0.0794 0,-0.10351 0.10631,-0.18011 0.23623,-0.17023 0.41904,0.0319 1.65365,-0.28671 1.65365,-0.42674 0,-0.0746 0.14883,-0.13094 0.33073,-0.1251 0.51137,0.0164 2.69308,-0.51314 2.69308,-0.65367 0,-0.0687 0.21261,-0.0843 0.47247,-0.0346 0.25986,0.0497 0.47247,0.0101 0.47247,-0.088 0,-0.0981 0.25514,-0.14084 0.56697,-0.0951 0.31183,0.0458 0.56696,0.006 0.56696,-0.0893 0,-0.0949 0.29766,-0.13774 0.66146,-0.0953 0.4226,0.0493 0.66146,-0.003 0.66146,-0.14359 0,-0.12145 0.0638,-0.18235 0.14174,-0.13533 0.078,0.047 1.75759,0.11188 3.73251,0.14413 1.97493,0.0323 3.67582,0.11231 3.77976,0.17792 0.10395,0.0656 0.67272,0.22329 1.26394,0.35042 0.59123,0.12713 1.35663,0.42043 1.7009,0.65177 0.85332,0.57343 1.77347,2.16993 1.94929,3.38214 0.2134,1.47122 0.41378,13.61998 0.22892,13.87945 -0.0872,0.12247 -0.16027,1.3131 -0.16227,2.64583 -0.004,2.44598 -0.0774,4.41272 -0.28205,7.52584 -0.11549,1.75669 -0.22021,3.48759 -0.38876,6.4256 -0.21101,3.67808 -0.29651,5.35854 -0.35334,6.94462 -0.0326,0.90913 -0.0995,1.71812 -0.14871,1.79776 -0.0492,0.0796 -0.13564,1.22997 -0.19206,2.5563 -0.0564,1.32633 -0.15526,2.49677 -0.21967,2.60099 -0.0644,0.10422 -0.0941,0.50863 -0.0659,0.89868 0.0282,0.39005 -0.0142,0.81505 -0.0942,0.94443 -0.08,0.12941 -0.12698,0.4672 -0.10448,0.75071 0.0225,0.2835 -0.0234,0.66553 -0.102,0.84899 -0.0786,0.18346 -0.0988,0.50236 -0.0448,0.70871 0.054,0.20633 0.0386,0.37516 -0.0342,0.37516 -0.17436,0 -0.6084,2.0824 -0.47801,2.29338 0.0556,0.0899 0.0239,0.16346 -0.0704,0.16346 -0.0943,0 -0.32109,0.33186 -0.504,0.7375 -0.39143,0.86802 -1.49559,1.99443 -2.22352,2.26832 -0.56891,0.21405 -7.26722,0.29851 -8.20248,0.10343 -0.48004,-0.10015 -0.64625,-0.0433 -0.88982,0.30448 -0.16473,0.23519 -0.25551,0.49879 -0.20174,0.58581 0.0538,0.087 0.018,0.1582 -0.0795,0.1582 -0.19402,0 -0.66404,1.0179 -0.66404,1.43809 0,0.14454 -0.085,0.26278 -0.18899,0.26278 -0.10394,0 -0.13938,0.0496 -0.0788,0.11026 0.0606,0.0606 -0.0146,0.25198 -0.16735,0.42521 -0.15267,0.17325 -0.63066,0.86193 -1.06219,1.53043 -1.71183,2.65178 -4.51666,5.0192 -6.85381,5.78493 -0.91839,0.30088 -1.66029,0.37017 -3.96464,0.37017 -3.18039,0 -4.62789,-0.11033 -4.62927,-0.35279 -5.3e-4,-0.0901 -0.16695,-0.12036 -0.36985,-0.0673 -0.2029,0.0531 -0.39425,0.0377 -0.42522,-0.0342 -0.031,-0.0719 -0.70719,-0.36616 -1.50271,-0.65392 -3.23982,-1.17194 -5.38395,-2.84938 -11.60514,-9.0792 -5.087672,-5.09474 -7.513577,-7.80148 -14.973793,-16.70709 -2.628924,-3.13827 -4.861346,-5.70593 -4.960937,-5.70593 -0.09959,0 -0.159814,-0.0723 -0.133827,-0.16065 0.055,-0.18701 -3.658777,-4.59302 -8.307287,-9.85572 -1.790342,-2.0269 -3.329656,-3.77031 -3.4207,-3.87426 -0.249806,-0.28521 -6.661824,-6.693 -7.312564,-7.30774 -0.31183,-0.29459 -0.652812,-0.53553 -0.757738,-0.53544 -0.104926,1e-4 -0.297,-0.16991 -0.426826,-0.3778 -0.129828,-0.20789 -0.362894,-0.37798 -0.517929,-0.37798 -0.155036,0 -0.281882,-0.0706 -0.281882,-0.15695 0,-0.19957 -1.747449,-1.46387 -1.937129,-1.40153 -0.07796,0.0256 -0.141739,-0.0296 -0.141739,-0.12271 0,-0.2031 -1.915782,-1.45737 -2.122901,-1.38986 -0.07973,0.026 -0.144957,-0.0242 -0.144957,-0.11141 0,-0.17409 -0.953984,-0.68314 -1.181177,-0.63028 -0.07796,0.0181 -0.14174,-0.0571 -0.14174,-0.16716 0,-0.11008 -0.08504,-0.14758 -0.188989,-0.0833 -0.103941,0.0642 -0.188986,0.0267 -0.188986,-0.0833 0,-0.11008 -0.06378,-0.18689 -0.141743,-0.1707 -0.07796,0.0162 -0.55113,-0.16028 -1.051494,-0.39216 -0.500367,-0.23188 -1.095679,-0.44649 -1.322916,-0.47692 -0.227241,-0.0304 -0.583253,-0.13035 -0.791139,-0.22206 -0.430461,-0.18988 -4.581943,-0.20162 -5.561039,-0.0157 -0.356042,0.0676 -0.696219,0.18884 -0.755952,0.26943 -0.05973,0.0806 -0.278693,0.1756 -0.486582,0.21112 -0.538199,0.092 -2.510618,1.31619 -2.731955,1.69564 -0.102224,0.17525 -0.189256,0.23359 -0.193397,0.12965 -0.0092,-0.23145 -3.216759,3.09921 -3.216759,3.34024 0,0.0945 -0.167151,0.35126 -0.371441,0.57054 -0.204292,0.21928 -0.326842,0.47086 -0.27233,0.55906 0.05451,0.0882 0.02323,0.16037 -0.06949,0.16037 -0.23264,0 -1.385332,2.27204 -1.257573,2.47876 0.05679,0.0919 0.02249,0.16707 -0.07621,0.16707 -0.171981,0 -1.668623,3.84776 -1.800984,4.63021 -0.03517,0.20789 -0.112779,0.50554 -0.172471,0.66146 -0.342104,0.89357 -0.526984,1.71795 -0.423008,1.88619 0.0655,0.10597 0.02368,0.19268 -0.09293,0.19268 -0.116612,0 -0.193606,0.14883 -0.171098,0.33073 0.02252,0.1819 -0.02516,0.48322 -0.10596,0.66961 -0.08079,0.18638 -0.0946,0.39117 -0.03069,0.45508 0.06391,0.0639 0.0301,0.21995 -0.07514,0.34675 -0.105238,0.12681 -0.222814,0.60238 -0.261279,1.05683 -0.03847,0.45444 -0.120793,1.03888 -0.182952,1.29873 -0.371644,1.5537 -0.589729,10.12464 -0.312568,12.28423 0.10005,0.77957 0.226044,1.75758 0.279985,2.17334 0.13022,1.00373 0.31247,1.84719 0.448479,2.07555 0.06082,0.10213 0.121148,0.31473 0.134078,0.47247 0.05742,0.70054 0.519906,2.27118 0.668763,2.27118 0.09031,0 0.115256,0.12759 0.05542,0.2835 -0.06161,0.16053 -0.0044,0.28348 0.131922,0.28348 0.132389,0 0.188417,0.0523 0.124507,0.1162 -0.151495,0.15148 0.69722,2.39991 1.283579,3.40046 0.251507,0.42915 0.403566,0.83402 0.33791,0.89968 -0.06566,0.0657 -0.01514,0.11936 0.112262,0.11936 0.127402,0 0.179081,0.0851 0.11484,0.18899 -0.06424,0.10395 -0.02172,0.18899 0.09449,0.18899 0.116213,0 0.158734,0.085 0.09449,0.18899 -0.06424,0.10396 -0.02172,0.189 0.0945,0.189 0.11621,0 0.158734,0.085 0.09449,0.18899 -0.06424,0.10393 -0.02172,0.18899 0.09449,0.18899 0.116213,0 0.158734,0.085 0.09449,0.18896 -0.06424,0.10396 -0.04382,0.189 0.04538,0.189 0.0892,0 0.269809,0.29765 0.401363,0.66146 0.131553,0.3638 0.323747,0.66145 0.427095,0.66145 0.103349,0 0.143309,0.0722 0.0888,0.16037 -0.05451,0.0882 0.06804,0.33978 0.272328,0.55906 0.204293,0.21929 0.371441,0.48731 0.371441,0.59561 0,0.10826 0.06429,0.19687 0.142853,0.19687 0.07857,0 0.259408,0.26332 0.401863,0.58515 0.246681,0.5573 4.173955,4.77555 4.314901,4.6346 0.03704,-0.037 0.329415,0.17749 0.64973,0.4767 0.320315,0.29922 0.785074,0.59489 1.032801,0.65707 0.247727,0.0622 0.450411,0.20304 0.450411,0.31306 0,0.10998 0.05331,0.14668 0.118456,0.0815 0.06515,-0.0651 0.384067,0.0222 0.708705,0.19442 0.582636,0.30884 0.882658,0.41211 1.444019,0.49702 0.157742,0.0238 0.388181,0.10601 0.512083,0.18258 0.123902,0.0766 0.505108,0.13997 0.847124,0.14087 3.928676,0.01 7.217786,0.25019 7.614404,0.55568 0.175075,0.13486 5.454076,0.10652 6.52009,-0.035 0.420023,-0.0557 0.465966,-0.003 0.413872,0.48379 l -0.0586,0.5465 1.287021,-0.11978 c 0.707863,-0.0659 1.96738,-0.15526 2.798929,-0.19862 0.831546,-0.0434 1.670343,-0.0911 1.863995,-0.10615 0.49504,-0.0383 0.561189,0.0865 0.282368,0.53297 -0.133196,0.21328 -0.192997,0.43696 -0.132892,0.49705 0.06011,0.0601 0.737246,0.023 1.504752,-0.0822 3.239857,-0.44466 3.994909,-0.47652 4.528211,-0.19111 0.424728,0.2273 3.048722,0.22889 4.024826,0.003 0.718042,-0.16658 1.630375,0.05 1.630375,0.38706 0,0.0811 1.054812,0.1515 2.344026,0.15635 1.289217,0.005 2.570422,0.0949 2.847126,0.20013 0.276704,0.10519 0.902086,0.19126 1.389736,0.19126 0.487647,0 1.157804,0.0778 1.489231,0.17283 0.4232,0.12136 0.634437,0.10731 0.709547,-0.0473 0.0588,-0.12102 0.0714,-0.0287 0.0281,0.20516 -0.0738,0.39775 -0.0137,0.42524 0.930534,0.42524 0.555187,0 1.220344,-0.0802 1.478121,-0.1782 0.34359,-0.13065 0.49402,-0.11221 0.563567,0.069 0.15622,0.40712 -4.91391,0.51113 -26.705091,0.54777 -18.954485,0.0319 -20.138744,0.0145 -20.405465,-0.29686 z"
       id="path2140"
       inkscape:connector-curvature="0" />
  </g>
</svg>
