<?xml version="1.0" encoding="UTF-8" standalone="no"?>
<!-- Created with Inkscape (http://www.inkscape.org/) -->

<svg
   xmlns:dc="http://purl.org/dc/elements/1.1/"
   xmlns:cc="http://creativecommons.org/ns#"
   xmlns:rdf="http://www.w3.org/1999/02/22-rdf-syntax-ns#"
   xmlns:svg="http://www.w3.org/2000/svg"
   xmlns="http://www.w3.org/2000/svg"
   xmlns:xlink="http://www.w3.org/1999/xlink"
   xmlns:sodipodi="http://sodipodi.sourceforge.net/DTD/sodipodi-0.dtd"
   xmlns:inkscape="http://www.inkscape.org/namespaces/inkscape"
   width="104mm"
   height="202mm"
   viewBox="0 0 104 202"
   version="1.1"
   id="svg886"
   inkscape:export-filename="C:\Users\Utopia\Desktop\higt.png"
   inkscape:export-xdpi="96"
   inkscape:export-ydpi="96"
   inkscape:version="0.92.4 (5da689c313, 2019-01-14)"
   sodipodi:docname="higttecl.svg">
  <defs
     id="defs880" />
  <sodipodi:namedview
     id="base"
     pagecolor="#ffffff"
     bordercolor="#666666"
     borderopacity="1.0"
     inkscape:pageopacity="0.0"
     inkscape:pageshadow="2"
     inkscape:zoom="0.49497475"
     inkscape:cx="159.81768"
     inkscape:cy="421.05492"
     inkscape:document-units="mm"
     inkscape:current-layer="layer2"
     showgrid="false"
     inkscape:window-width="1366"
     inkscape:window-height="705"
     inkscape:window-x="-8"
     inkscape:window-y="-8"
     inkscape:window-maximized="1" />
  <metadata
     id="metadata883">
    <rdf:RDF>
      <cc:Work
         rdf:about="">
        <dc:format>image/svg+xml</dc:format>
        <dc:type
           rdf:resource="http://purl.org/dc/dcmitype/StillImage" />
        <dc:title></dc:title>
      </cc:Work>
    </rdf:RDF>
  </metadata>
  <g
     inkscape:label="Layer 1"
     inkscape:groupmode="layer"
     id="layer1"
     sodipodi:insensitive="true"
     style="display:none"
     transform="translate(0,-95)">
    <image
       sodipodi:absref="C:\Users\Utopia\Desktop\1489828_640px.jpg"
       xlink:href="1489828_640px.jpg"
       width="169.33333"
       height="225.68959"
       preserveAspectRatio="none"
       id="image1439"
       x="-17.538099"
       y="88.149254" />
  </g>
  <g
     inkscape:groupmode="layer"
     id="layer2"
     inkscape:label="Layer 2"
     transform="translate(0,-95)">
    <path
       style="fill:none;stroke:#000000;stroke-width:0.26458332px;stroke-linecap:butt;stroke-linejoin:miter;stroke-opacity:1"
       d="m 48.536944,96.280583 c -1.615805,0.463407 -2.952831,1.636371 -4.276312,2.672696 -3.224352,2.524761 -6.281284,5.339161 -8.819893,8.552621 -4.754599,6.01854 -8.419013,12.87376 -11.759859,19.77795 -3.697089,7.6404 -6.538748,15.69071 -9.087164,23.78699 -2.426309,7.70835 -4.095178,15.63807 -5.8799291,23.51971 -1.2849614,5.67452 -2.5466905,11.36152 -3.4745022,17.10525 -1.1877021,7.35262 -2.0468628,14.76178 -2.6726932,22.18337 -0.464675,5.51048 -0.5804317,11.04511 -0.8018077,16.57071 -0.224797,5.61099 -0.5744347,11.22263 -0.5345387,16.83798 0.05512,7.75881 0.5632067,15.50996 1.0690774,23.25246 0.3439277,5.26392 0.4711357,10.5652 1.3363464,15.7689 0.4819817,2.89882 2.1381545,8.55264 2.1381545,8.55264 l 95.6823966,0.53451 c 0,0 0.6681,-7.83307 0.80181,-11.75984 0.38202,-11.21882 0.16503,-22.45186 0,-33.67597 -0.13365,-9.09011 -0.19189,-18.19088 -0.80181,-27.26149 -0.34257,-5.09467 -0.88708,-10.17871 -1.603617,-15.23436 -1.066764,-7.52671 -2.510785,-14.99782 -4.009019,-22.45064 -1.367411,-6.80207 -2.750022,-13.61017 -4.543553,-20.31249 -2.316318,-8.65594 -4.689493,-17.33854 -8.018049,-25.65787 -2.767678,-6.91747 -6.224034,-13.55834 -9.888971,-20.04522 -2.394786,-4.23873 -4.950401,-8.4094 -7.88445,-12.2944 -1.654423,-2.19064 -3.379327,-4.37239 -5.451625,-6.17283 -1.942046,-1.687275 -4.199198,-3.354401 -6.44187,-4.250677 -1.571831,-0.628177 -3.451009,-0.46665 -5.078122,0 z"
       id="path1443"
       inkscape:connector-curvature="0"
       sodipodi:nodetypes="aaaaaaasaaasccaaaaaaaaaasa" />
    <path
       style="opacity:0;fill:none;stroke:#000000;stroke-width:0.26458332px;stroke-linecap:butt;stroke-linejoin:miter;stroke-opacity:1"
       d="m 32.968496,131.56016 -7.283095,11.42577 c 0,0 1.74125,7.09888 3.073601,10.49033 1.456834,3.70832 3.431284,7.19647 5.34539,10.69078 2.044267,3.73192 4.211471,7.40187 6.548101,10.95805 2.637395,4.01392 5.581895,7.8177 8.418992,11.69305 2.88657,3.94292 5.824807,7.84779 8.753075,11.75985 3.040369,4.06182 6.152538,8.07011 9.153983,12.16077 3.012759,4.10608 6.008411,8.2266 8.886711,12.42803 2.800028,4.08718 5.584562,8.19071 8.15172,12.42803 2.407774,3.97426 4.724482,8.01224 6.79176,12.17378 1.989128,4.0042 3.769249,8.11577 5.38613,12.28422 1.419241,3.6589 2.536075,7.42807 3.779739,11.15031 0.861727,2.57909 2.551337,7.7485 2.551337,7.7485 l -0.0945,-5.38615 -0.30705,-29.15076 c 0,0 -4.251685,-7.49771 -6.414443,-11.22532 -1.893951,-3.26433 -3.813699,-6.51372 -5.74627,-9.75534 -2.384325,-3.99941 -4.721493,-8.02882 -7.216242,-11.96031 -2.581574,-4.06832 -5.316826,-8.03728 -8.018087,-12.02713 -2.909347,-4.2972 -5.753901,-8.64206 -8.819893,-12.82894 -2.869119,-3.91803 -6.092662,-7.56853 -8.953529,-11.49259 -2.889607,-3.96348 -5.471219,-8.14334 -8.285356,-12.16076 -2.361885,-3.37179 -5.140065,-6.46778 -7.216277,-10.02261 -1.980157,-3.39037 -3.500786,-7.03957 -4.944486,-10.69078 -1.380359,-3.49102 -3.541311,-10.69078 -3.541311,-10.69078 z"
       id="path1445"
       inkscape:connector-curvature="0"
       sodipodi:nodetypes="ccaaaaaaaaaascccaaaaaasaac" />
    <path
       style="opacity:0;fill:none;stroke:#000000;stroke-width:0.26458332px;stroke-linecap:butt;stroke-linejoin:miter;stroke-opacity:1"
       d="m 61.89359,140.80134 3.401785,-9.92188 c 0,0 4.938424,7.54357 7.370537,11.33929 2.673131,4.17187 5.41759,8.30154 7.9375,12.56771 2.323007,3.93281 4.534855,7.93403 6.614573,12.00074 2.046468,4.00169 3.900986,8.09945 5.764097,12.18973 1.040684,2.28472 2.261335,4.50608 3.023792,6.89807 0.566577,1.77746 0.781177,3.64873 1.133924,5.48065 0.780404,4.05287 2.173348,12.18973 2.173348,12.18973 l 0.377977,3.02381 c 0,0 -3.144372,-5.73584 -4.535683,-8.69345 -1.382044,-2.9379 -2.381358,-6.04677 -3.779749,-8.97693 -1.924031,-4.03158 -4.104286,-7.93916 -6.331064,-11.81176 -2.396663,-4.16803 -4.946688,-8.24818 -7.55952,-12.28422 -2.525764,-3.90155 -5.309021,-7.63207 -7.843004,-11.52828 -2.668609,-4.10321 -7.748513,-12.47321 -7.748513,-12.47321 z"
       id="path1447"
       inkscape:connector-curvature="0"
       sodipodi:nodetypes="ccssssssccaaaaac" />
    <path
       style="opacity:0;fill:none;stroke:#000000;stroke-width:0.26458332px;stroke-linecap:butt;stroke-linejoin:miter;stroke-opacity:1"
       d="m 12.662191,158.09375 c 0,0 -0.0957,6.43107 0.0945,9.63839 0.103163,1.73961 0.298521,3.4753 0.566963,5.19717 0.292129,1.8738 0.629821,3.74695 1.13393,5.57515 1.011551,3.66849 2.221501,7.30059 3.77976,10.77232 1.622333,3.61448 3.757829,6.97804 5.764139,10.39435 2.328208,3.96442 4.724442,7.89279 7.276041,11.71726 2.64383,3.96271 5.469756,7.80246 8.315476,11.62277 3.071184,4.12299 6.307931,8.12004 9.449403,12.18973 3.252934,4.21408 6.479955,8.44812 9.732888,12.6622 3.141473,4.06969 6.414301,8.04011 9.449404,12.18973 2.981311,4.07607 5.931102,8.18543 8.598958,12.47322 2.592424,4.16655 4.698145,8.61874 7.181548,12.85118 1.94653,3.31747 6.047586,9.8274 6.047586,9.8274 H 75.21725 c 0,0 -4.921424,-6.79801 -7.370535,-10.20538 -3.0966,-4.3082 -6.058663,-8.71503 -9.260417,-12.94566 -3.042762,-4.02055 -6.400772,-7.79567 -9.449403,-11.81177 -3.2499,-4.28125 -6.217903,-8.77035 -9.419844,-13.08758 -2.972118,-4.00736 -6.18737,-7.83349 -9.087165,-11.89349 -2.707084,-3.79019 -5.293322,-7.66965 -7.750815,-11.62623 -2.375589,-3.82472 -4.801781,-7.64031 -6.753651,-11.69766 -1.7724,-3.68429 -3.24994,-7.51951 -4.47167,-11.42115 -1.149392,-3.67062 -2.1000507,-7.42182 -2.6726934,-11.22532 -0.6114194,-4.06107 -0.8018084,-12.2944 -0.8018084,-12.2944 z"
       id="path1449"
       inkscape:connector-curvature="0"
       sodipodi:nodetypes="caaaaaaaaaaaaccaaaaaaaaacc" />
    <path
       style="opacity:0;fill:none;stroke:#000000;stroke-width:0.26458332px;stroke-linecap:butt;stroke-linejoin:miter;stroke-opacity:1"
       d="m 43.32519,129.95654 -3.474503,-9.08716 6.013564,-10.28988 3.207234,9.75534 z"
       id="path1451"
       inkscape:connector-curvature="0" />
    <path
       style="opacity:0;fill:none;stroke:#000000;stroke-width:0.26458332px;stroke-linecap:butt;stroke-linejoin:miter;stroke-opacity:1"
       d="m 45.864251,110.5795 -0.668174,-7.75081 3.340867,-6.548107 1.202714,6.548107 z"
       id="path1453"
       inkscape:connector-curvature="0" />
    <path
       style="opacity:0;fill:none;stroke:#000000;stroke-width:0.26458332px;stroke-linecap:butt;stroke-linejoin:miter;stroke-opacity:1"
       d="m 49.739658,102.82869 1.476105,-6.982895 2.976563,6.236605 -1.370163,8.00837 z"
       id="path1455"
       inkscape:connector-curvature="0" />
    <path
       style="opacity:0;fill:none;stroke:#000000;stroke-width:0.26458332px;stroke-linecap:butt;stroke-linejoin:miter;stroke-opacity:1"
       d="m 53.294632,96.105653 0.897694,5.976747 5.338913,8.81157 -1.086681,-7.89025 z"
       id="path1457"
       inkscape:connector-curvature="0" />
    <path
       style="opacity:0;fill:none;stroke:#000000;stroke-width:0.26458332px;stroke-linecap:butt;stroke-linejoin:miter;stroke-opacity:1"
       d="m 58.444558,103.00372 6.094865,7.89025 -1.748139,-7.65402 -5.480656,-4.913686 z"
       id="path1459"
       inkscape:connector-curvature="0" />
    <path
       style="opacity:0;fill:none;stroke:#000000;stroke-width:0.26458332px;stroke-linecap:butt;stroke-linejoin:miter;stroke-opacity:1"
       d="m 45.196077,102.82869 -5.479026,7.95127 2.071338,-8.08491 5.011304,-5.679476 z"
       id="path1461"
       inkscape:connector-curvature="0" />
    <path
       style="opacity:0;fill:none;stroke:#000000;stroke-width:0.26458332px;stroke-linecap:butt;stroke-linejoin:miter;stroke-opacity:1"
       d="m 41.788389,102.69505 -5.078121,6.11379 2.772923,-5.74629 4.376537,-3.708366 z"
       id="path1463"
       inkscape:connector-curvature="0" />
    <path
       style="opacity:0;fill:none;stroke:#000000;stroke-width:0.26458332px;stroke-linecap:butt;stroke-linejoin:miter;stroke-opacity:1"
       d="m 39.850687,120.86938 -0.133636,-10.08942 -7.400097,10.83909 0.651542,9.94111 z"
       id="path1465"
       inkscape:connector-curvature="0" />
    <path
       style="opacity:0;fill:none;stroke:#000000;stroke-width:0.26458332px;stroke-linecap:butt;stroke-linejoin:miter;stroke-opacity:1"
       d="m 49.071485,120.33484 3.750678,-10.24407 5.47012,10.11044 -3.474503,10.0226 z"
       id="path1471"
       inkscape:connector-curvature="0" />
    <path
       style="opacity:0;fill:none;stroke:#000000;stroke-width:0.26458332px;stroke-linecap:butt;stroke-linejoin:miter;stroke-opacity:1"
       d="m 58.292283,120.20121 1.238956,-9.30724 7.180035,10.24268 -1.415899,9.74281 z"
       id="path1473"
       inkscape:connector-curvature="0" />
    <path
       style="opacity:0;fill:none;stroke:#000000;stroke-width:0.26458332px;stroke-linecap:butt;stroke-linejoin:miter;stroke-opacity:1"
       d="m 66.711274,121.13665 -2.171851,-10.24268 8.051779,11.24494 1.5368,9.75534 z"
       id="path1475"
       inkscape:connector-curvature="0" />
    <path
       style="opacity:0;fill:none;stroke:#000000;stroke-width:0.26458332px;stroke-linecap:butt;stroke-linejoin:miter;stroke-opacity:1"
       d="m 72.591202,122.13891 -2.472243,-8.15172 4.543584,7.34991 1.603615,2.80633 2.004521,7.2831 z"
       id="path1477"
       inkscape:connector-curvature="0" />
    <path
       style="opacity:0;fill:none;stroke:#000000;stroke-width:0.26458332px;stroke-linecap:butt;stroke-linejoin:miter;stroke-opacity:1"
       d="m 32.316954,121.61905 -7.099276,11.07701 1.670437,-9.68852 7.507708,-10.8379 z"
       id="path1479"
       inkscape:connector-curvature="0" />
    <path
       style="opacity:0;fill:none;stroke:#000000;stroke-width:0.26458332px;stroke-linecap:butt;stroke-linejoin:miter;stroke-opacity:1"
       d="m 26.888115,123.00754 -3.875408,7.41672 1.135893,-4.20949 2.472243,-4.87767 4.656677,-7.84454 -3.023811,7.74851 z"
       id="path1481"
       inkscape:connector-curvature="0" />
    <path
       style="opacity:0;fill:none;stroke:#000000;stroke-width:0.26458332px;stroke-linecap:butt;stroke-linejoin:miter;stroke-opacity:1"
       d="m 2.1733575,221.68824 c 0,0 0.9416907,5.69713 1.6063981,8.50446 0.5811757,2.45454 1.3102554,4.8736 2.0788678,7.27605 1.2628464,3.94726 2.5247278,7.9082 4.1577356,11.71726 1.757108,4.09852 3.923835,8.01182 6.047339,11.93305 2.190734,4.04538 4.469008,8.04711 6.900715,11.95239 2.8074,4.50863 5.804838,8.89897 8.868187,13.23777 2.074422,2.93812 6.437479,8.65915 6.437479,8.65915 l -16.059181,-0.10652 c 0,0 -3.538593,-6.47013 -5.211757,-9.75535 -2.224207,-4.36718 -4.488153,-8.72333 -6.414469,-13.22985 C 8.8285089,267.76819 7.2252338,263.5843 5.9074584,259.31499 4.7030063,255.41282 3.8369866,251.41169 2.9674952,247.4215 2.3545955,244.60884 1.3638791,238.93569 1.3638791,238.93569 Z"
       id="path1483"
       inkscape:connector-curvature="0"
       sodipodi:nodetypes="caaaaaaccaaaacc" />
    <path
       style="fill:#a0a0a0;stroke:none;stroke-width:0.26726952"
       d="M 5.6064407,293.33605 C 4.918707,290.93832 4.1477746,287.72728 3.8578576,286.05294 2.6651412,279.16478 0.65232348,237.85193 1.7548478,242.88892 c 0.144791,0.66149 0.7977177,3.64901 1.4509471,6.63893 2.9773305,13.62762 6.5504384,22.63651 15.9675251,40.25887 1.411608,2.64154 2.566556,4.8365 2.566556,4.87767 0,0.0411 -3.539468,0.0748 -7.865485,0.0748 H 6.0089074 Z"
       id="path1495"
       inkscape:connector-curvature="0" />
    <path
       style="fill:#a0a0a0;stroke:none;stroke-width:0.26726952"
       d="m 46.146493,294.7453 -7.799359,-0.13973 -2.905286,-3.8754 C 26.522151,278.83204 18.704912,266.21099 12.183235,253.17879 8.4840409,245.78673 4.4542643,233.28981 2.8825812,224.3361 2.5154005,222.24432 2.4531695,220.89874 2.5872715,217.95079 2.9842972,209.22298 4.86715,194.42677 6.8306158,184.60492 c 1.0328517,-5.16665 1.1511624,-5.57014 1.2090684,-4.12344 0.326507,8.15725 1.2414914,13.42512 3.5977338,20.71339 2.854809,8.83042 6.097376,15.15223 13.777259,26.86059 3.629284,5.53302 5.204902,7.72977 9.968351,13.89802 2.156876,2.79296 6.084377,8.09539 8.727779,11.78316 2.643402,3.68778 7.024293,9.4608 9.735317,12.82895 3.796615,4.71686 13.241449,17.57251 20.51163,27.91904 0.362055,0.51525 0.235458,0.52107 -10.022607,0.46112 -5.714111,-0.0334 -13.899005,-0.12361 -18.188654,-0.20045 z"
       id="path1497"
       inkscape:connector-curvature="0" />
    <path
       style="fill:#a0a0a0;stroke:none;stroke-width:0.26726952"
       d="m 87.293635,290.25371 c -1.625321,-2.61983 -4.356783,-7.32822 -6.069896,-10.46306 -1.713111,-3.13483 -3.961659,-7.03736 -4.996778,-8.67224 -2.499739,-3.94814 -8.000029,-11.61415 -12.008588,-16.7369 -1.782908,-2.27848 -5.421366,-6.96906 -8.085466,-10.42351 -2.6641,-3.45446 -7.321301,-9.46803 -10.349338,-13.36348 -10.09369,-12.98515 -14.281658,-18.99558 -20.819067,-29.87886 -6.088238,-10.1355 -7.705466,-13.55855 -9.782464,-20.70567 -1.538356,-5.29361 -2.030248,-8.85309 -2.18799,-15.83292 -0.130657,-5.78122 -0.103354,-6.27573 0.457441,-8.28536 2.743951,-9.83304 8.83454,-26.30206 9.419769,-25.47115 0.145214,0.20618 0.294127,0.23951 0.364191,0.0815 0.289256,-0.65223 3.033012,-5.59891 3.039028,-5.47902 0.0037,0.0735 -0.29288,1.80799 -0.659045,3.85442 -0.366162,2.04643 -0.614196,3.77234 -0.551183,3.83535 0.257525,0.25753 0.739167,-0.40183 3.758023,-5.14469 1.735611,-2.72678 3.18535,-4.92608 3.221643,-4.88733 0.03629,0.0388 0.205875,2.03018 0.376849,4.42539 l 0.310862,4.35494 -3.634171,5.66767 c -4.175893,6.51251 -3.935588,5.30972 -2.240902,11.21628 1.472115,5.13082 2.719099,8.0487 6.018424,14.08276 6.363586,11.63823 7.425333,13.18811 26.0083,37.96521 19.106833,25.4756 25.92458,35.79092 32.238134,48.77669 3.194462,6.57041 5.33759,12.05418 8.512872,21.78247 l 2.573477,7.88445 -0.29897,5.7463 c -0.16443,3.16045 -0.37937,6.7686 -0.47764,8.01807 l -0.17868,2.27179 -5.501843,0.0721 -5.50185,0.0721 z"
       id="path1499"
       inkscape:connector-curvature="0" />
    <path
       style="opacity:1;fill:#a0a0a0;stroke:none;stroke-width:0.26726952"
       d="m 99.248026,238.81306 c -3.388412,-5.95232 -12.748258,-21.81092 -15.182879,-25.72469 -2.225368,-3.57738 -13.4864,-20.36972 -16.578985,-24.72244 -1.09664,-1.54348 -3.33217,-4.49012 -4.967848,-6.5481 -4.586404,-5.77051 -5.16169,-6.55464 -9.518563,-12.97402 -2.240523,-3.30116 -5.422648,-7.80618 -7.071394,-10.01116 -3.541395,-4.73614 -4.036325,-5.50541 -5.75763,-8.94916 -1.927783,-3.85683 -3.830343,-8.62735 -5.476142,-13.73098 l -1.457888,-4.52092 3.244066,-5.04712 c 1.784237,-2.77591 3.279794,-5.01138 3.323458,-4.96772 0.04367,0.0437 0.814787,1.99745 1.713601,4.34175 0.898813,2.3443 1.675431,4.30358 1.725813,4.35397 0.05038,0.0504 1.263002,-1.87082 2.694702,-4.26934 1.431703,-2.39852 2.74315,-4.51349 2.91433,-4.69993 0.243075,-0.26476 0.921239,0.71415 3.096643,4.46987 1.531975,2.64488 2.869229,4.72176 2.971676,4.6153 0.102449,-0.10645 0.866352,-2.17803 1.697564,-4.60351 0.83121,-2.42547 1.597792,-4.49972 1.703512,-4.60945 0.105719,-0.10973 1.654588,2.03301 3.441925,4.76166 l 3.24971,4.96117 -1.716323,4.94815 -1.71632,4.94816 3.245744,5.25728 c 1.785157,2.8915 5.907712,9.22623 9.16123,14.07717 9.828942,14.6548 15.201665,24.03414 18.861974,32.92792 0.895304,2.1754 2.755195,6.15499 4.133096,8.84353 2.812865,5.48842 2.796885,5.42392 3.722142,15.02332 0.65765,6.82293 1.50847,26.19242 1.15053,26.19242 -0.0745,0 -1.24795,-1.95441 -2.607744,-4.34313 z"
       id="path1501"
       inkscape:connector-curvature="0" />
    <path
       style="fill:#a0a0a0;stroke:none;stroke-width:0.26726952"
       d="m 91.603788,175.35022 c -5.681077,-12.2869 -9.618163,-19.23334 -19.848307,-35.01961 -3.26041,-5.03119 -5.981877,-9.30082 -6.047697,-9.48807 -0.178335,-0.50732 1.046019,-8.63476 1.291135,-8.57075 0.115964,0.0303 1.598678,2.0749 3.294922,4.54358 3.210793,4.67294 3.729969,5.34668 3.95029,5.12636 0.07269,-0.0727 -0.153363,-1.92974 -0.502333,-4.12677 -0.348969,-2.19704 -0.603496,-4.02721 -0.565618,-4.06706 0.03788,-0.0398 1.130649,1.6805 2.428375,3.82297 1.297726,2.14248 2.457818,3.95618 2.577981,4.03044 0.336777,0.20814 0.26076,-0.60425 -0.20715,-2.21381 -0.234098,-0.80526 -0.374185,-1.51556 -0.311304,-1.57844 0.200708,-0.20071 4.111279,8.16901 5.628913,12.04746 3.61471,9.23772 7.974546,24.5259 10.747991,37.68883 0.519357,2.46489 0.898984,4.5269 0.843634,4.58225 -0.0554,0.0554 -1.531731,-2.99446 -3.280832,-6.77738 z"
       id="path1503"
       inkscape:connector-curvature="0" />
    <path
       style="opacity:1;fill:#a0a0a0;stroke:none;stroke-width:0.09449405"
       d="m 32.756486,120.46943 c 0.02772,-0.10394 0.445468,-1.99618 0.928335,-4.20498 l 0.877938,-4.016 3.381767,-4.33124 c 1.85997,-2.38218 3.381764,-4.28617 3.381764,-4.2311 0,0.14474 -1.690156,6.73085 -1.785062,6.95594 -0.08118,0.19254 -6.576825,9.74949 -6.743676,9.92188 -0.05958,0.0615 -0.07389,0.0286 -0.04107,-0.0945 z"
       id="path1505"
       inkscape:connector-curvature="0" />
    <path
       style="fill:#a0a0a0;stroke:none;stroke-width:0.09449405"
       d="m 29.325547,119.07074 c 0,-0.0365 0.476014,-1.28876 1.057812,-2.78285 l 1.057812,-2.71652 2.023033,-2.92932 c 1.112671,-1.61112 2.218682,-3.16319 2.457807,-3.44903 0.810652,-0.96903 2.609305,-2.85702 2.638473,-2.76952 0.05029,0.15088 -2.013217,4.30913 -2.455101,4.94735 -0.232193,0.33536 -1.815769,2.62955 -3.519056,5.09821 -3.129468,4.53569 -3.26078,4.721 -3.26078,4.60168 z"
       id="path1507"
       inkscape:connector-curvature="0" />
    <path
       style="fill:#a0a0a0;stroke:none;stroke-width:0.09449405"
       d="m 39.971512,116.72498 c -0.03445,-1.88141 -0.06263,-3.98054 -0.06263,-4.66472 v -1.24396 l 2.374463,-3.44166 c 1.305954,-1.89292 2.466695,-3.57704 2.57942,-3.7425 l 0.204957,-0.30083 0.306242,3.58399 c 0.244896,2.86606 0.283565,3.6267 0.193027,3.79712 -0.220049,0.41422 -5.4024,9.28562 -5.467146,9.35893 -0.03613,0.0409 -0.09388,-1.46496 -0.128331,-3.34637 z"
       id="path1509"
       inkscape:connector-curvature="0" />
    <path
       style="fill:#a0a0a0;stroke:none;stroke-width:0.09449405"
       d="m 47.541598,115.12411 -1.485955,-4.53956 1.824889,-3.64882 c 1.003689,-2.00685 1.84989,-3.60836 1.880449,-3.55892 0.112652,0.18227 2.832518,6.60715 2.836979,6.70152 0.0067,0.1425 -3.462493,9.58814 -3.521011,9.58663 -0.02717,-8e-4 -0.718074,-2.04409 -1.535351,-4.54085 z"
       id="path1511"
       inkscape:connector-curvature="0" />
    <path
       style="fill:#a0a0a0;stroke:none;stroke-width:0.09449405"
       d="m 58.059897,119.38275 c -1.330881,-2.37721 -5.015995,-9.30324 -5.015008,-9.42552 0.0019,-0.22483 1.20808,-7.21792 1.252755,-7.2626 0.01953,-0.0195 1.163748,1.82733 2.542735,4.1041 l 2.507253,4.13959 -0.548376,4.1041 c -0.301606,2.25725 -0.561588,4.2104 -0.577738,4.34033 l -0.02936,0.23624 z"
       id="path1513"
       inkscape:connector-curvature="0" />
    <path
       style="fill:#a0a0a0;stroke:none;stroke-width:0.09449405"
       d="m 62.978543,115.49925 c -1.785813,-2.54852 -3.264,-4.70523 -3.284863,-4.79268 -0.05999,-0.2515 -0.973373,-6.95395 -0.950738,-6.97658 0.01119,-0.0112 1.283007,1.61395 2.826274,3.61141 l 2.805936,3.63175 0.954219,4.4956 c 0.52482,2.47258 0.941142,4.53353 0.925158,4.57989 -0.01598,0.0464 -1.490175,-2.00087 -3.275986,-4.54939 z"
       id="path1515"
       inkscape:connector-curvature="0" />
    <path
       style="fill:#a0a0a0;stroke:none;stroke-width:0.09449405"
       d="m 68.348815,115.90528 -3.634679,-5.07424 -0.772515,-3.35401 c -0.424881,-1.84471 -0.759129,-3.36739 -0.742772,-3.38375 0.08785,-0.0878 2.988698,3.78039 4.465523,5.9547 1.857185,2.73431 2.493756,3.77407 2.388357,3.90106 -0.06671,0.0804 0.217011,1.14464 0.945126,3.54526 0.572249,1.88672 1.02812,3.44274 1.013045,3.45781 -0.01508,0.0151 -1.663013,-2.256 -3.662085,-5.04683 z"
       id="path1517"
       inkscape:connector-curvature="0" />
    <path
       style="fill:#a0a0a0;stroke:none;stroke-width:0.09449405"
       d="m 49.711256,101.66512 c -0.210032,-0.74032 -0.937083,-5.170577 -0.861029,-5.246631 0.10913,-0.109133 1.996655,-0.430573 2.074024,-0.353203 0.02983,0.02983 -0.218824,1.34452 -0.552569,2.921529 -0.333745,1.577005 -0.630939,2.782245 -0.660426,2.678305 z"
       id="path1519"
       inkscape:connector-curvature="0" />
    <path
       style="opacity:0;fill:#a0a0a0;stroke:none;stroke-width:0.09449405"
       d="m 45.958083,100.82653 c -7.94e-4,-0.0455 0.219353,-0.886114 0.489389,-1.868134 l 0.490974,-1.785488 0.563991,-0.281828 c 0.310195,-0.155007 0.580996,-0.264827 0.601779,-0.244044 0.02077,0.0208 -0.453239,0.988264 -1.053383,2.149959 -0.600141,1.161693 -1.09188,2.074985 -1.09275,2.029535 z"
       id="path1521"
       inkscape:connector-curvature="0" />
    <path
       style="fill:#a0a0a0;stroke:none;stroke-width:0.09449405"
       d="m 52.642217,98.42846 c -0.610523,-1.277798 -1.089633,-2.343677 -1.064691,-2.368622 0.06596,-0.06596 1.404337,0.166981 1.498163,0.260752 0.0797,0.07965 0.748221,4.23875 0.701493,4.36421 -0.01371,0.0368 -0.524444,-0.978543 -1.134965,-2.25634 z"
       id="path1523"
       inkscape:connector-curvature="0" />
    <path
       style="opacity:0;fill:#a0a0a0;stroke:none;stroke-width:0.09449405"
       d="m 55.943741,99.350456 c -1.124262,-1.507424 -2.01349,-2.74006 -1.976057,-2.739192 0.132072,0.0031 1.651828,0.853012 2.416654,1.351547 l 0.774541,0.504873 0.438338,1.787706 c 0.241089,0.98324 0.427609,1.79853 0.414491,1.81177 -0.01312,0.0132 -0.943702,-1.20928 -2.067967,-2.716704 z"
       id="path1525"
       inkscape:connector-curvature="0" />
    <path
       style="opacity:0;fill:#a0a0a0;stroke:none;stroke-width:0.09449405"
       d="m 43.499654,100.31689 c 0,-0.0399 0.106304,-0.229 0.236236,-0.42021 0.129929,-0.191209 0.238606,-0.381799 0.241509,-0.423534 0.0071,-0.102706 1.035357,-0.909384 1.089774,-0.85497 0.04293,0.04293 -1.445731,1.771274 -1.525633,1.771274 -0.02305,0 -0.04189,-0.0326 -0.04189,-0.0726 z"
       id="path1527"
       inkscape:connector-curvature="0" />
    <path
       style="fill:#ffffff;stroke:none;stroke-width:0.37797621"
       d="M 87.150695,289.68252 C 85.488944,286.92803 82.548492,281.86787 80.616372,278.43773 74.819147,268.14579 72.157288,264.38691 54.797584,241.9783 36.35529,218.17223 33.039026,213.5916 26.327442,202.65351 19.391871,191.35038 16.927738,186.07493 14.887335,178.16146 c -1.770523,-6.86678 -2.430584,-19.5601 -1.181645,-22.72362 0.341376,-0.86469 0.330194,-1.16924 -0.05183,-1.41162 -0.37637,-0.23879 -0.357143,-0.31037 0.08457,-0.31484 0.377891,-0.004 0.826322,-0.87066 1.322863,-2.55713 0.413147,-1.40324 0.751203,-2.72143 0.751232,-2.92931 2.9e-5,-0.20789 0.170143,-0.50555 0.378029,-0.66146 0.237053,-0.17779 0.166592,-0.42225 -0.188987,-0.65567 -0.485378,-0.31863 -0.471781,-0.37302 0.09449,-0.37798 0.761598,-0.007 0.889138,-0.60687 0.188987,-0.88939 -0.28225,-0.11389 -0.206161,-0.20266 0.188989,-0.22049 0.762812,-0.0344 0.886452,-0.632 0.188989,-0.91344 -0.322974,-0.13032 -0.29302,-0.20009 0.09466,-0.22048 0.780907,-0.0411 2.396318,-4.62724 1.770144,-5.02543 -0.314465,-0.19997 -0.278738,-0.28622 0.120246,-0.29029 0.367781,-0.004 1.099489,-1.36987 2.078193,-3.88005 0.830805,-2.13084 1.468334,-4.00182 1.416735,-4.15774 -0.0516,-0.15591 0.210924,-0.28348 0.583391,-0.28348 0.447037,0 1.031261,-0.72188 1.718868,-2.12389 0.57291,-1.16814 1.127054,-2.03849 1.231434,-1.93411 0.104378,0.10438 -0.0038,1.30166 -0.240498,2.66063 -0.758754,4.35707 -0.377412,4.23659 3.036668,-0.95941 1.739559,-2.64751 3.2419,-4.73458 3.338534,-4.63794 0.09663,0.0966 0.319817,1.88013 0.495969,3.96333 l 0.32027,3.78764 -2.882622,4.43987 c -1.585442,2.44193 -3.22417,5.14289 -3.641617,6.00212 l -0.758996,1.56224 1.390123,4.86455 c 1.557409,5.44995 3.964323,10.72142 8.548772,18.72302 4.202009,7.33409 6.694569,10.9053 21.752308,31.16558 21.15189,28.45999 26.412515,36.30358 32.672056,48.71405 4.051136,8.032 5.560517,11.71197 9.482736,23.11946 2.649034,7.7045 2.706184,7.95012 2.645924,11.37086 -0.0429,2.4334 0.0715,3.49628 0.37634,3.49628 0.31869,0 0.31065,0.15338 -0.0296,0.5633 -0.63132,0.76068 -1.03665,5.70053 -0.43736,5.33017 0.23887,-0.14764 0.43431,-0.0883 0.43431,0.13184 0,0.22016 -0.15078,0.40029 -0.33506,0.40029 -0.18428,0 -0.44984,0.76541 -0.59012,1.7009 l -0.25507,1.7009 h -5.413873 -5.41386 l -3.021372,-5.0082 z"
       id="path1529"
       inkscape:connector-curvature="0" />
    <path
       style="fill:#ffffff;stroke:none;stroke-width:0.37797621"
       d="m 97.458465,235.44294 c -9.913733,-17.03867 -14.028181,-23.6975 -21.77843,-35.24628 -4.534093,-6.75632 -10.43184,-15.10108 -13.106111,-18.5439 -2.674268,-3.44282 -6.984436,-9.3109 -9.578155,-13.04017 -2.593715,-3.72928 -6.13682,-8.73654 -7.87356,-11.12724 -3.844756,-5.29246 -6.74946,-11.21129 -9.625251,-19.61307 l -2.120418,-6.19492 3.118834,-4.84742 c 1.715357,-2.66608 3.219145,-4.72591 3.341753,-4.5774 0.122606,0.14851 0.890146,2.01343 1.705647,4.14427 0.815502,2.13084 1.599748,3.87426 1.742768,3.87426 0.143024,0 1.384134,-1.86568 2.758025,-4.14595 1.373891,-2.28027 2.645407,-4.23706 2.825589,-4.34842 0.180183,-0.11136 1.490718,1.70028 2.912297,4.02587 1.421583,2.32559 2.772085,4.28815 3.001119,4.36124 0.233579,0.0745 1.041305,-1.65684 1.839574,-3.94317 0.78273,-2.24183 1.546201,-4.21049 1.696598,-4.3748 0.237299,-0.25925 5.775013,7.6109 6.27848,8.92293 0.101976,0.26574 -0.579424,2.6392 -1.514223,5.27434 l -1.699639,4.79117 1.934401,3.12836 c 1.063919,1.7206 5.28121,8.23105 9.371753,14.46765 11.827735,18.03304 15.76206,24.84595 20.017726,34.66378 1.055104,2.43412 2.937765,6.49698 4.183686,9.02858 1.245924,2.5316 2.265318,4.8348 2.265318,5.11822 0,0.28342 0.29765,0.51792 0.661457,0.5211 0.525747,0.005 0.554017,0.0738 0.13782,0.33741 -0.36685,0.23234 -0.43945,0.65497 -0.24249,1.41162 0.15463,0.59401 0.316997,1.73133 0.360827,2.52739 0.0438,0.79606 0.32304,1.60138 0.62047,1.7896 0.44451,0.2813 0.44807,0.34324 0.02,0.348 -0.64865,0.007 -0.26276,3.03568 0.44405,3.48495 0.33633,0.21379 0.31919,0.29053 -0.0658,0.29481 -0.69778,0.008 -0.36584,3.72921 0.37445,4.19803 0.44306,0.28059 0.44353,0.33279 0.003,0.33769 -0.41466,0.005 -0.48441,0.63847 -0.34164,3.1047 0.10755,1.85794 0.35405,3.15714 0.61553,3.2443 0.23987,0.08 0.43613,0.31133 0.43613,0.51416 0,0.20284 -0.18928,0.2518 -0.42064,0.10882 -0.30673,-0.18957 -0.34546,1.54423 -0.14303,6.40329 0.15267,3.66479 0.2074,6.66325 0.1216,6.66325 -0.0858,0 -2.011577,-3.18917 -4.279515,-7.08705 z"
       id="path1531"
       inkscape:connector-curvature="0" />
    <path
       style="fill:#ffffff;stroke:none;stroke-width:0.37797621"
       d="m 89.081093,169.99901 c -5.356383,-10.83321 -8.08946,-15.55928 -17.268557,-29.86104 -3.254965,-5.07149 -5.918115,-9.52939 -5.918115,-9.90644 0,-1.19653 0.842716,-6.5551 1.110366,-7.06046 0.163375,-0.30847 1.406176,1.17721 3.409458,4.07576 1.733807,2.50864 3.29711,4.65062 3.474013,4.75995 0.433571,0.26796 0.400979,-1.77851 -0.07504,-4.71218 -0.215032,-1.32522 -0.338629,-2.46184 -0.274661,-2.5258 0.06397,-0.064 1.13416,1.53057 2.378199,3.54342 2.203313,3.56496 2.265056,3.6266 2.384153,2.38008 0.119904,-1.25495 0.144764,-1.23123 1.287568,1.22843 0.697116,1.5004 1.407298,2.52006 1.767618,2.53791 0.346723,0.0172 0.41347,0.10686 0.157295,0.21134 -0.517507,0.21106 0.09458,2.40466 0.670983,2.40466 0.18755,0 0.299111,0.12756 0.247912,0.28348 -0.22983,0.6999 1.017085,3.49862 1.570998,3.52612 0.330528,0.0164 0.406736,0.1095 0.169354,0.20687 -0.488405,0.20032 0.135433,2.7871 0.67215,2.7871 0.16648,0 0.20479,0.25513 0.0851,0.56696 -0.14354,0.37405 0.0213,0.57712 0.484327,0.59681 0.397877,0.0169 0.497247,0.11241 0.22943,0.22049 -0.697467,0.28143 -0.573827,0.87902 0.188987,0.91344 0.39515,0.0178 0.471237,0.10659 0.18898,0.22048 -0.697457,0.28144 -0.573817,0.87903 0.18899,0.91345 0.395147,0.0178 0.471237,0.10659 0.188987,0.22048 -0.700144,0.28252 -0.572607,0.88273 0.18899,0.88939 0.566267,0.005 0.579867,0.0593 0.0945,0.37798 -0.35558,0.23342 -0.42604,0.47788 -0.18898,0.65567 0.20788,0.15591 0.386827,0.45357 0.397657,0.66146 0.051,0.97916 0.657777,3.21282 0.872817,3.21306 0.132777,1.5e-4 0.268007,0.45853 0.300517,1.01862 0.0325,0.5601 0.362667,1.24034 0.733697,1.51164 0.398007,0.29104 0.479567,0.49328 0.198907,0.49328 -0.626117,0 -0.180517,1.53575 0.630597,2.17337 0.369637,0.29057 0.424927,0.47247 0.14362,0.47247 -0.476457,0 -0.31454,1.16783 0.419247,3.02381 0.20548,0.51971 0.420377,1.28512 0.477557,1.70089 0.13334,0.96965 1.642451,7.00284 1.938168,7.74851 0.12367,0.31183 0.29309,1.16228 0.3765,1.88988 0.0834,0.72761 0.409857,1.51835 0.725444,1.75721 0.37089,0.28071 0.42352,0.4844 0.14882,0.57596 -0.312977,0.10433 -0.307947,0.60643 0.0191,1.9052 0.24423,0.96995 0.383937,1.91959 0.310447,2.11033 -0.0735,0.19073 -2.371235,-4.17879 -5.1061,-9.71004 z"
       id="path1533"
       inkscape:connector-curvature="0" />
    <path
       style="fill:#ffffff;stroke:none;stroke-width:0.37797621"
       d="m 43.593824,295.10442 c 0,-0.18823 -1.403236,-0.28644 -3.118302,-0.21826 -2.518029,0.10012 -2.7545,0.0683 -1.228423,-0.16533 1.779463,-0.27242 1.806699,-0.29279 0.466172,-0.34872 -1.362583,-0.0568 -1.570795,-0.25816 -4.849913,-4.68959 C 22.415149,272.85989 11.892156,254.16009 7.5846405,241.20708 4.3355593,231.43685 3.1033782,226.12268 2.8739692,220.89086 c -0.128102,-2.92145 -0.3404777,-4.4432 -0.6206257,-4.44701 -0.2970817,-0.004 -0.2904357,-0.0919 0.02197,-0.29058 0.246322,-0.15663 0.5658907,-1.17457 0.7101527,-2.26207 0.2061437,-1.55398 0.1507247,-1.97852 -0.25887,-1.98306 -0.4415407,-0.005 -0.4418137,-0.0561 -0.0018,-0.33478 0.302194,-0.19142 0.5752337,-1.17684 0.6529557,-2.35657 0.07347,-1.11516 0.244705,-2.6654 0.3805247,-3.44498 0.172284,-0.98887 0.109552,-1.41741 -0.2074837,-1.41741 -0.294726,0 -0.245689,-0.20874 0.1395327,-0.59396 0.6708777,-0.67088 0.8076857,-2.42985 0.188988,-2.42985 -0.222736,0 -0.137691,-0.26728 0.188988,-0.59396 0.7075284,-0.70753 0.7929984,-2.42501 0.1214917,-2.44134 -0.2622087,-0.006 -0.1781047,-0.18295 0.188989,-0.39676 0.7408027,-0.43148 0.9113084,-2.23758 0.211239,-2.23758 -0.254238,0 -0.17746,-0.20567 0.1763797,-0.47247 0.405267,-0.30559 0.6839197,-1.20679 0.7888797,-2.55134 0.08925,-1.14338 0.2640317,-2.33401 0.3883927,-2.64584 0.124361,-0.31183 0.292493,-1.24732 0.3736277,-2.07886 0.08113,-0.83155 0.273222,-1.8169 0.426862,-2.18967 0.1536397,-0.37277 0.1747647,-0.78234 0.04694,-0.91016 -0.127822,-0.12782 -0.04476,-0.4585 0.1845797,-0.73484 0.22934,-0.27634 0.320338,-0.75429 0.202216,-1.06211 -0.118121,-0.30782 -0.05211,-0.6602 0.146702,-0.78307 0.1988067,-0.12287 0.3856797,-0.59606 0.4152707,-1.05154 0.02959,-0.45547 0.1881567,0.92112 0.3523677,3.0591 0.8765394,11.4123 5.1192778,24.114 11.7689418,35.2333 5.898692,9.86354 17.496078,25.93875 37.085749,51.40477 2.158873,2.80646 6.935194,9.26986 10.614048,14.36309 l 6.688828,9.26042 -14.099577,0.18899 c -7.754768,0.10393 -13.589309,0.29107 -12.965649,0.41582 0.792046,0.15846 0.421666,0.24394 -1.228423,0.2835 -1.299292,0.0311 -2.362351,-0.0974 -2.362351,-0.28562 z m 1.409539,-0.26411 c -0.125603,-0.1256 -0.451607,-0.13901 -0.724456,-0.0298 -0.301524,0.12068 -0.211963,0.21024 0.228362,0.22837 0.398447,0.0164 0.621692,-0.0729 0.496094,-0.19852 z"
       id="path1535"
       inkscape:connector-curvature="0" />
    <path
       style="fill:#ffffff;stroke:none;stroke-width:0.37797621"
       d="m 5.8528464,293.55679 c -0.2174087,-0.62367 -0.6167494,-1.13654 -0.8874214,-1.13972 -0.3798257,-0.004 -0.3863667,-0.073 -0.02866,-0.30022 0.4404687,-0.27985 0.206163,-1.95612 -0.5383827,-3.85172 -0.2637507,-0.67152 -0.3407897,-1.22873 -0.4273987,-3.09132 -0.03556,-0.76472 -0.3319357,-1.65769 -0.6586147,-1.98437 -0.3682797,-0.36828 -0.4256267,-0.59396 -0.150929,-0.59396 0.303401,0 0.382734,-0.56587 0.25171,-1.79539 -0.105229,-0.98748 -0.266376,-3.12153 -0.3581057,-4.74236 -0.09173,-1.62084 -0.362939,-3.14315 -0.6026867,-3.38291 -0.5633987,-0.56338 -0.5660377,-1.1657 -0.0036,-0.81809 0.5513027,0.34073 0.07242,-5.09495 -0.5107797,-5.79771 -0.278536,-0.33565 -0.253499,-0.47247 0.08645,-0.47247 0.3653817,0 0.4185597,-0.64796 0.2248937,-2.74034 -0.139502,-1.50718 -0.4190597,-2.79702 -0.6212407,-2.86632 -0.2021807,-0.0693 -0.3676007,-0.29194 -0.3676007,-0.49477 0,-0.20283 0.170089,-0.26367 0.3779757,-0.13518 0.6995267,0.43233 0.228339,-7.94516 -0.6038937,-10.73694 -0.19198262,-0.64402 -0.14341062,-0.83061 0.166378,-0.63915 0.295639,0.18272 0.4375157,-0.11177 0.4375157,-0.90814 0,-0.68945 -0.1568607,-1.0816 -0.3779757,-0.94494 -0.230596,0.14251 -0.37797662,-0.42961 -0.37797662,-1.46729 0,-3.38581 0.64402862,-1.94605 2.23001072,4.98532 2.9711052,12.98489 6.2289094,21.47291 14.0491078,36.60412 2.272376,4.39679 4.131593,8.09622 4.131593,8.22097 0,0.12475 -3.385148,0.22683 -7.522549,0.22683 H 6.2481194 Z"
       id="path1537"
       inkscape:connector-curvature="0" />
    <path
       style="fill:#ffffff;stroke:none;stroke-width:0.13363476"
       d="m 47.601463,115.0874 -1.485088,-4.45304 1.726068,-3.45017 c 0.949335,-1.8976 1.780455,-3.48378 1.846926,-3.52487 0.107916,-0.0667 2.829095,6.12367 2.829095,6.43585 0,0.1106 -2.178238,6.13031 -3.104799,8.58032 l -0.327115,0.86496 z"
       id="path1539"
       inkscape:connector-curvature="0" />
    <path
       style="fill:#ffffff;stroke:none;stroke-width:0.13363476"
       d="m 40.044743,117.45617 c -0.04837,-1.33539 -0.08795,-3.36916 -0.08795,-4.51947 v -2.09149 l 2.498629,-3.62927 c 1.374244,-1.9961 2.5169,-3.61101 2.539231,-3.58867 0.0512,0.0512 0.572346,6.02199 0.573756,6.5736 7.94e-4,0.29021 -0.775126,1.74005 -2.680546,5.00907 -1.474878,2.53035 -2.69815,4.6172 -2.718385,4.63743 -0.02024,0.0202 -0.07637,-1.0558 -0.124738,-2.3912 z"
       id="path1541"
       inkscape:connector-curvature="0" />
    <path
       style="fill:#a0a0a0;stroke:none;stroke-width:0.13363476"
       d="m 32.874154,120.25603 c 0,-0.0474 0.392041,-1.86793 0.871201,-4.04559 l 0.871205,-3.95938 2.69331,-3.43428 c 1.48132,-1.88885 2.962788,-3.76502 3.292149,-4.16926 0.701207,-0.86063 0.738492,-1.19646 -0.335356,3.02051 l -0.752155,2.9537 -3.086317,4.5379 c -3.409392,5.01293 -3.554037,5.22035 -3.554037,5.0964 z"
       id="path1543"
       inkscape:connector-curvature="0" />
    <path
       style="fill:#ffffff;stroke:none;stroke-width:0.13363476"
       d="m 32.874154,120.24741 c 0,-0.0489 0.391319,-1.87136 0.869601,-4.05001 l 0.869598,-3.96118 2.425755,-3.09277 c 3.656836,-4.66237 4.050065,-5.14508 4.094713,-5.02653 0.02262,0.0601 -0.329306,1.54203 -0.782061,3.29327 l -0.823187,3.18407 -1.480251,2.20498 c -1.981444,2.95155 -4.9183,7.25233 -5.060056,7.41004 -0.06276,0.0698 -0.114112,0.087 -0.114112,0.0381 z"
       id="path1545"
       inkscape:connector-curvature="0" />
    <path
       style="fill:#ffffff;stroke:none;stroke-width:0.13363476"
       d="m 29.711137,118.27826 c 0.045,-0.18374 0.464222,-1.31693 0.931603,-2.51818 0.823989,-2.1178 0.911006,-2.27192 2.86689,-5.07812 1.109409,-1.59171 2.0066,-2.93036 1.993755,-2.97477 -0.01283,-0.0444 0.174627,-0.24733 0.416605,-0.45094 0.241974,-0.20361 0.415938,-0.39422 0.386582,-0.42357 -0.02935,-0.0294 0.374021,-0.4704 0.89639,-0.9801 0.522372,-0.5097 0.969145,-0.87107 0.992833,-0.80305 0.02368,0.068 -0.429329,1.04273 -1.006705,2.16603 -0.790911,1.53873 -1.836139,3.17922 -4.23877,6.65275 -1.753947,2.53572 -3.218696,4.64047 -3.254997,4.67722 -0.0363,0.0367 -0.02918,-0.0835 0.01582,-0.26727 z"
       id="path1547"
       inkscape:connector-curvature="0" />
    <path
       style="fill:#ffffff;stroke:none;stroke-width:0.13363476"
       d="m 56.369895,116.16123 c -0.931926,-1.73885 -2.053789,-3.8531 -2.493029,-4.69834 l -0.798616,-1.5368 0.506061,-2.93997 c 0.278334,-1.61698 0.560909,-3.21057 0.627941,-3.54132 l 0.121878,-0.60135 0.470347,0.73499 c 0.258691,0.40424 1.376145,2.23838 2.483231,4.07586 l 2.012884,3.34087 -0.551326,4.0983 c -0.303228,2.25407 -0.581393,4.12778 -0.618141,4.1638 -0.03675,0.036 -0.829304,-1.35719 -1.76123,-3.09604 z"
       id="path1549"
       inkscape:connector-curvature="0" />
    <path
       style="fill:#ffffff;stroke:none;stroke-width:0.13363476"
       d="m 64.04774,116.90999 c -1.10518,-1.56268 -2.526077,-3.59973 -3.157548,-4.52679 l -1.148127,-1.68556 -0.458179,-3.32574 c -0.251997,-1.82916 -0.442992,-3.34186 -0.424432,-3.36156 0.01857,-0.0197 1.254472,1.53894 2.746468,3.46363 l 2.712723,3.49944 0.388887,1.81495 c 0.78037,3.64202 1.431319,6.88115 1.39097,6.9215 -0.02273,0.0227 -0.945584,-1.2372 -2.050762,-2.79987 z"
       id="path1551"
       inkscape:connector-curvature="0" />
    <path
       style="fill:#ffffff;stroke:none;stroke-width:0.13363476"
       d="m 70.873003,119.31247 c -0.441481,-0.60556 -2.005851,-2.78482 -3.476376,-4.8428 l -2.673681,-3.74177 -0.691417,-3.0736 c -0.38028,-1.69048 -0.690795,-3.11682 -0.690033,-3.16963 7.94e-4,-0.0528 0.09159,-0.0614 0.201835,-0.0191 0.110249,0.0423 0.200453,0.14894 0.200453,0.23696 0,0.088 0.210474,0.38983 0.467723,0.67068 0.257246,0.28085 0.46772,0.53175 0.46772,0.55756 0,0.14054 2.72593,3.79488 2.830769,3.79488 0.06873,0 0.08754,0.0606 0.0418,0.13458 -0.04575,0.074 0.0105,0.17053 0.124981,0.21446 0.114485,0.0439 0.17462,0.13414 0.133633,0.20045 -0.04099,0.0663 0.01916,0.15652 0.133636,0.20045 0.114485,0.0439 0.17462,0.13414 0.133633,0.20046 -0.04098,0.0663 0.01916,0.15651 0.133636,0.20045 0.114485,0.0439 0.177168,0.13001 0.139295,0.19129 -0.03787,0.0613 0.03764,0.17102 0.167809,0.24387 0.13017,0.0728 0.21897,0.16839 0.197335,0.21232 -0.05238,0.10636 0.920062,1.67618 1.03832,1.67618 0.0508,0 0.09973,0.0752 0.108725,0.16704 0.04838,0.49409 0.372216,1.72593 1.102418,4.1935 0.447519,1.5123 0.790454,2.77285 0.762077,2.80122 -0.02837,0.0284 -0.412806,-0.44387 -0.854287,-1.04943 z"
       id="path1553"
       inkscape:connector-curvature="0" />
    <path
       style="fill:#ffffff;stroke:none;stroke-width:0.13363476"
       d="m 52.673546,98.356514 c -0.52629,-1.108985 -0.956892,-2.07854 -0.956892,-2.154566 0,-0.07813 0.13072,-0.103198 0.300681,-0.05765 0.165372,0.04432 0.390879,0.08232 0.501129,0.08445 0.447402,0.0086 0.558522,0.280948 0.873786,2.141252 0.178612,1.053962 0.305274,1.93577 0.281469,1.95957 -0.02381,0.0238 -0.473882,-0.864071 -1.000173,-1.973056 z"
       id="path1555"
       inkscape:connector-curvature="0" />
    <path
       style="fill:#ffffff;stroke:none;stroke-width:0.13363476"
       d="m 49.66425,101.17301 c -0.09307,-0.22813 -0.753925,-4.218692 -0.753925,-4.552604 0,-0.164143 0.20846,-0.25403 0.835218,-0.360143 0.459369,-0.07777 0.946409,-0.185584 1.08231,-0.239581 0.21028,-0.08355 0.226933,-0.06045 0.111776,0.155059 -0.07443,0.13928 -0.298561,1.085898 -0.498086,2.103597 -0.467821,2.386202 -0.672883,3.149592 -0.777293,2.893672 z"
       id="path1557"
       inkscape:connector-curvature="0" />
  </g>
</svg>
