<?xml version="1.0" encoding="UTF-8" standalone="no"?>
<!-- Created with Inkscape (http://www.inkscape.org/) -->

<svg
   xmlns:dc="http://purl.org/dc/elements/1.1/"
   xmlns:cc="http://creativecommons.org/ns#"
   xmlns:rdf="http://www.w3.org/1999/02/22-rdf-syntax-ns#"
   xmlns:svg="http://www.w3.org/2000/svg"
   xmlns="http://www.w3.org/2000/svg"
   xmlns:xlink="http://www.w3.org/1999/xlink"
   xmlns:sodipodi="http://sodipodi.sourceforge.net/DTD/sodipodi-0.dtd"
   xmlns:inkscape="http://www.inkscape.org/namespaces/inkscape"
   width="210mm"
   height="297mm"
   viewBox="0 0 210 297"
   version="1.1"
   id="svg8"
   inkscape:version="0.92.4 (5da689c313, 2019-01-14)"
   sodipodi:docname="Renaissans.svg">
  <defs
     id="defs2" />
  <sodipodi:namedview
     id="base"
     pagecolor="#ffffff"
     bordercolor="#666666"
     borderopacity="1.0"
     inkscape:pageopacity="0.0"
     inkscape:pageshadow="2"
     inkscape:zoom="0.49497475"
     inkscape:cx="32.789742"
     inkscape:cy="512.68671"
     inkscape:document-units="mm"
     inkscape:current-layer="layer2"
     showgrid="false"
     showguides="true"
     inkscape:guide-bbox="true"
     inkscape:window-width="1366"
     inkscape:window-height="705"
     inkscape:window-x="-8"
     inkscape:window-y="-8"
     inkscape:window-maximized="1" />
  <metadata
     id="metadata5">
    <rdf:RDF>
      <cc:Work
         rdf:about="">
        <dc:format>image/svg+xml</dc:format>
        <dc:type
           rdf:resource="http://purl.org/dc/dcmitype/StillImage" />
        <dc:title></dc:title>
      </cc:Work>
    </rdf:RDF>
  </metadata>
  <g
     inkscape:label="Layer 1"
     inkscape:groupmode="layer"
     id="layer1"
     sodipodi:insensitive="true"
     style="display:none">
    <image
       sodipodi:absref="C:\Users\Utopia\Desktop\861a040dead3b6d2fe0b9b06fb123c98.jpg"
       xlink:href="861a040dead3b6d2fe0b9b06fb123c98.jpg"
       width="189.17477"
       height="279.38376"
       preserveAspectRatio="none"
       id="image823"
       x="7.2551007"
       y="13.152959" />
  </g>
  <g
     inkscape:groupmode="layer"
     id="layer2"
     inkscape:label="Layer 2">
    <path
       style="fill:none;stroke:#000000;stroke-width:0.26458332px;stroke-linecap:butt;stroke-linejoin:miter;stroke-opacity:1"
       d="m 102.49786,36.679481 c -0.44301,-0.772941 -1.18323,-1.352677 -1.60361,-2.138159 -0.37892,-0.708024 -0.80731,-1.468763 -0.80181,-2.271789 0.006,-0.901945 0.36932,-1.836883 0.93544,-2.539061 0.36453,-0.452146 0.65885,-0.730255 1.092,-0.935442 0.81082,-0.384087 1.75712,-0.562623 2.64977,-0.47247 0.66514,0.06718 1.33221,0.334849 1.86418,0.739739 0.62213,0.473512 1.19769,1.119752 1.41462,1.870887 0.22328,0.773124 -0.0393,1.615916 -0.2052,2.405425 -0.20106,0.95707 -0.85589,1.777942 -1.46998,2.539061 -0.41582,0.515377 -1.07011,0.8085 -1.46998,1.336346 -0.30073,0.396979 -0.66818,1.336347 -0.66818,1.336347 l 0.80181,2.80633 c 0,0 1.03384,1.62142 1.06908,2.539061 0.0108,0.281519 -0.17213,0.536631 -0.26727,0.801809 -0.20952,0.583992 -0.5549,1.127239 -0.66817,1.737251 -0.0732,0.394168 0,1.202714 0,1.202714 0,0 1.0312,-0.06926 1.33635,0.267269 0.30071,0.331636 0.13363,1.336349 0.13363,1.336349 l 2.6727,0.133634 0.13363,0.801809 h -0.93544 l -0.13364,1.603616 c 0,0 -0.47528,0.01371 -0.66817,0.133635 -0.62045,0.385755 -1.05857,1.061528 -1.33635,1.737252 -0.54619,1.328646 -0.62998,2.842955 -0.53454,4.276312 0.0581,0.873236 0.23947,1.776087 0.66818,2.539061 0.81791,1.455639 1.98963,2.935087 3.4745,3.791886 0.51369,0.29641 1.22581,0.08392 1.73725,0.3842 0.34692,0.203687 0.65884,0.526002 0.80181,0.902035 0.25329,0.666193 -0.0871,1.430777 0,2.138156 0.0673,0.546862 0.4009,1.603619 0.4009,1.603619 0,0 5.04074,1.401847 7.41673,2.472242 2.67497,1.205083 5.2569,2.667317 7.61718,4.409946 2.32029,1.713105 4.4058,3.747402 6.34765,5.87993 1.77557,1.949914 3.38626,4.061525 4.81086,6.280833 1.56622,2.439928 2.97213,5.002945 4.07586,7.684 0.85028,2.065409 1.42403,4.240746 1.9377,6.414466 0.60293,2.55146 0.51864,5.25988 1.33635,7.75082 0.0466,0.14195 0.0755,0.31904 0.20045,0.4009 0.35449,0.23218 0.98302,-0.24543 1.26953,0.0668 0.452,0.49259 0.26525,1.42427 -0.0668,2.00452 -0.19642,0.34323 -0.71938,0.35843 -1.00227,0.63477 -0.14361,0.14028 -0.27837,0.30825 -0.33408,0.50113 -0.48222,1.66958 0.13363,5.21175 0.13363,5.21175 h 4.34313 v 0.86863 l -0.93544,0.86862 -0.53454,0.93545 c 0,0 0.23472,1.3494 -0.20045,1.73725 -0.26603,0.2371 -0.73821,-0.13235 -1.06908,0 -0.59971,0.23988 -1.08319,0.77528 -1.40317,1.33635 -0.29442,0.51625 -0.39413,1.14299 -0.4009,1.73725 -0.008,0.65954 0.61838,1.31501 0.4009,1.9377 -0.0574,0.16422 -0.4009,0.33409 -0.4009,0.33409 v 30.46873 c 0,0 0.62806,0.45622 0.66817,0.80181 0.0172,0.14841 -0.16612,0.25549 -0.20045,0.4009 -0.27121,1.14886 0,3.54132 0,3.54132 0,0 0.88267,-0.21557 1.1359,0.0668 0.29778,0.33204 -0.0668,1.33635 -0.0668,1.33635 l 17.74206,0.37801 c 0,0 -0.84792,1.08241 -1.13393,1.70089 -0.1925,0.41626 -0.15711,0.92099 -0.37798,1.32292 -0.18266,0.3324 -0.64097,0.489 -0.75595,0.85044 -0.0865,0.27181 -0.007,0.58406 0.0945,0.85045 0.0968,0.25306 0.35318,0.41817 0.47246,0.66146 0.14477,0.29527 0.23574,0.61958 0.28349,0.94494 0.0503,0.3428 0.13259,0.71933 0,1.03943 -0.17047,0.41154 -0.97652,0.50061 -0.94494,0.94494 0.0335,0.47128 0.98624,0.40165 1.13393,0.85045 0.10279,0.31237 -0.1435,0.64738 -0.28349,0.94494 -0.14504,0.30829 -0.48082,0.52082 -0.56696,0.85045 -0.10384,0.39734 -0.06,0.84792 0.0945,1.22842 0.0926,0.22793 0.25906,0.4446 0.47247,0.56696 0.16621,0.0953 0.44313,-0.0517 0.56697,0.0945 0.30539,0.36051 0,1.41742 0,1.41742 l 5.38616,-0.0945 c 0,0 -1.05503,0.955 -1.22842,1.6064 -0.12261,0.46061 0.52044,1.07487 0.18898,1.41741 -0.22013,0.22748 -0.63104,-0.13539 -0.94494,-0.0945 -0.26686,0.0348 -0.53652,0.12768 -0.75595,0.28348 -0.40118,0.28484 -0.56476,0.82162 -0.94494,1.13393 -0.30496,0.25052 -0.75651,0.2918 -1.03944,0.56696 -0.32649,0.31752 -0.56496,0.74211 -0.68741,1.18077 -0.34738,1.24442 -0.0668,3.8754 -0.0668,3.8754 0,0 0.61281,-0.18899 0.8018,0 0.23623,0.23623 0.11873,0.68998 0,1.00226 -0.0953,0.25069 -0.43231,0.35341 -0.53454,0.60136 -0.45915,1.11363 -0.20045,3.60814 -0.20045,3.60814 h 2.73951 c 0,0 -0.41968,0.88292 -0.60135,1.33635 -0.14933,0.37272 -0.0731,0.90398 -0.40091,1.13589 -0.2,0.1415 -0.53843,-0.14625 -0.73499,0 -0.18656,0.13881 -0.0588,0.48381 -0.20045,0.66818 -0.20718,0.26955 -0.62642,0.29595 -0.86862,0.53453 -0.20689,0.20379 -0.37399,0.46015 -0.46773,0.735 -0.23824,0.69851 -0.20045,2.20497 -0.20045,2.20497 0,0 1.00124,-0.32726 1.26953,0 0.144,0.17565 0.0321,0.51285 -0.13363,0.66817 -0.24592,0.23048 -1.00226,0.13364 -1.00226,0.13364 l 0.33408,48.84351 c 0,0 0.21049,0.29737 0.26727,0.46772 0.0568,0.17035 10e-4,0.36727 0.0668,0.53454 0.0697,0.17847 0.22694,0.30889 0.33409,0.46772 0.16241,0.24074 0.24217,0.55207 0.46772,0.73499 0.1478,0.11987 0.42064,0.048 0.53454,0.20045 0.1871,0.25043 -0.0904,0.66525 0.0668,0.93544 0.12117,0.20822 0.49878,0.18293 0.60136,0.40091 0.2765,0.58754 -0.59163,1.4194 -0.20045,1.9377 0.23162,0.30689 0.92438,-0.12062 1.13589,0.20045 0.21399,0.32482 -0.0191,0.83636 -0.26727,1.1359 -0.13994,0.16892 -0.60135,0.26727 -0.60135,0.26727 l 0.0668,4.74403 5.41221,0.20046 c 0,0 0.10092,0.71247 -0.0668,1.00226 -0.20113,0.34751 -0.8128,0.31417 -1.00226,0.66818 -0.25222,0.47129 0,1.60361 0,1.60361 l 6.74856,0.4009 c 0,0 -0.0207,0.75419 -0.20045,1.06907 -0.11737,0.20562 -0.44273,0.2495 -0.53454,0.46773 -0.15571,0.3701 0.0668,1.20272 0.0668,1.20272 l 6.01356,0.0668 c 0,0 0.24743,0.92622 0,1.26952 -0.20591,0.28569 -1.00226,0.33409 -1.00226,0.33409 v 1.73725 l 5.81311,0.13365 v 3.00677 l -171.262879,0.0354 c 0,0 -0.01117,-0.22043 -0.01482,-0.33072 -0.01512,-0.45657 0.101156,-0.93237 -0.02936,-1.37015 -0.02652,-0.089 -0.192498,-0.15507 -0.147473,-0.23625 0.03507,-0.0632 0.163899,0.22212 0.216943,0 0.0873,-0.36555 0.0043,-1.48828 -0.04893,-1.48828 l 6.732701,-0.0945 c 0,0 0.435548,-1.45852 -0.02362,-1.88989 -0.229851,-0.21594 -0.718148,0.26635 -0.94494,0.0472 -0.362462,-0.35024 0.02362,-1.51191 0.02362,-1.51191 l 6.071244,-0.23624 c 0,0 0.09402,-0.92842 -0.07087,-1.34655 -0.188634,-0.47834 -0.991169,-0.66696 -0.992187,-1.18115 -2.44e-4,-0.12301 0.117922,-0.24984 0.236236,-0.2835 0.191607,-0.0545 0.370063,0.15873 0.566962,0.18899 1.852651,0.28469 5.622396,-0.0945 5.622396,-0.0945 0,0 0.0623,-1.26138 -0.14174,-1.84264 -0.138896,-0.39568 -0.65088,-0.62409 -0.708705,-1.03944 -0.03434,-0.24663 0.236233,-0.7087 0.236233,-0.7087 l 5.338916,-0.0473 -0.0945,-4.44122 c 0,0 -1.002518,-0.25495 -1.22842,-0.66146 -0.122638,-0.22069 -0.12692,-0.57317 0.04725,-0.75595 0.393527,-0.41298 1.700893,-0.18899 1.700893,-0.18899 v -2.3151 c 0,0 0.474746,-0.18217 0.614211,-0.37798 0.08423,-0.11827 -0.01877,-0.33437 0.09449,-0.42522 0.110563,-0.0887 0.320557,0.0956 0.425222,0 0.256904,-0.23461 -0.143266,-0.78546 0.0945,-1.03944 0.207032,-0.22115 0.897692,-0.14174 0.897692,-0.14174 0,0 -0.184518,-0.30416 -0.236234,-0.47247 -0.07,-0.22781 -0.17092,-0.48296 -0.0945,-0.7087 0.07142,-0.21096 0.472472,-0.47247 0.472472,-0.47247 l 0.755952,-49.13691 -0.330729,-0.28348 -0.18899,-0.47247 0.141743,-0.33073 0.330729,-0.42522 -0.141742,-1.18118 -0.803199,-0.85045 -0.283482,-0.75595 -0.566965,-0.0945 -0.566963,-0.47247 -0.472471,-0.94494 -0.425223,-1.46466 0.661459,0.42522 2.787573,-0.14174 -0.04725,-2.83482 c 0,0 -0.515542,-0.0931 -0.661458,-0.28348 -0.13548,-0.17678 -0.05578,-0.44212 -0.09449,-0.66146 -0.05315,-0.30114 -0.19472,-0.59195 -0.188989,-0.89769 0.0049,-0.25969 0.03436,-0.54725 0.188989,-0.75595 0.05467,-0.0738 0.236236,-0.14175 0.236236,-0.14175 l 0.188987,-4.25223 c 0,0 -0.402608,-0.51527 -0.661458,-0.7087 -0.141047,-0.1054 -0.338117,-0.12243 -0.472469,-0.23624 -0.163446,-0.13846 -0.203939,-0.39483 -0.377976,-0.51972 -0.21449,-0.15392 -0.755955,-0.23623 -0.755955,-0.23623 0,0 0.147243,-0.49734 0,-0.66146 -0.486647,-0.54241 -1.698613,0.31662 -2.173361,-0.23624 -0.236207,-0.27507 0.110615,-0.72969 0.04725,-1.08668 -0.07156,-0.40317 -0.287901,-0.7684 -0.47247,-1.13392 -0.04139,-0.082 -0.141742,-0.23624 -0.141742,-0.23624 h 5.480656 l -0.18899,-1.55915 c 0,0 0.691462,0.17009 0.897695,-0.0473 0.151693,-0.1599 0.03643,-0.44384 0,-0.66121 -0.07984,-0.47647 -0.392629,-0.89369 -0.472472,-1.37016 -0.04945,-0.29512 -0.05434,-0.60343 0,-0.89769 0.104099,-0.56374 0.649948,-1.03424 0.614212,-1.6064 -0.01669,-0.26721 -0.255102,-0.47084 -0.377976,-0.70871 -0.129295,-0.2503 -0.331548,-0.47808 -0.377976,-0.75595 -0.03928,-0.23507 0.04832,-0.4749 0.09449,-0.70871 0.05993,-0.30356 0.178001,-0.5938 0.236236,-0.89769 0.122429,-0.63887 0.313278,-1.29121 0.236236,-1.93713 -0.01594,-0.13361 -0.114434,-0.24621 -0.141743,-0.37797 -0.06401,-0.30881 0.164454,-0.71118 -0.04725,-0.94494 -0.213805,-0.23608 -0.716265,0.08 -0.944941,-0.14174 -0.25284,-0.24513 -0.08856,-0.7019 -0.188987,-1.03944 -0.09259,-0.31119 -0.291308,-0.5848 -0.377975,-0.89769 -0.02973,-0.10732 -0.04725,-0.33073 -0.04725,-0.33073 l 18.520833,0.23623 -0.09449,-1.18117 h 0.897694 l -0.04725,-3.44903 -0.33073,-0.28349 0.566963,-0.99218 0.330729,-0.23624 -0.04725,-30.56882 c 0,0 -0.286885,-0.18392 -0.354351,-0.33073 -0.07898,-0.17187 -0.106662,-0.39701 -0.02363,-0.56697 0.0892,-0.18259 0.406198,-0.1721 0.496094,-0.35435 0.306719,-0.62183 0.209467,-1.44471 -0.07087,-2.07887 -0.173363,-0.39217 -0.561828,-0.66398 -0.921316,-0.89769 -0.14221,-0.0924 -0.339253,-0.084 -0.472469,-0.18899 -0.545664,-0.43009 -0.632975,-1.30624 -1.204799,-1.70089 -0.180769,-0.12476 -0.505549,0.01 -0.637836,-0.16537 -0.194508,-0.2578 0.03976,-0.64601 0.02363,-0.96856 -0.0095,-0.19022 0.0013,-0.39073 -0.07087,-0.56697 -0.24066,-0.58732 -0.953851,-0.91076 -1.157552,-1.5119 -0.0834,-0.24611 0,-0.77958 0,-0.77958 l 4.346726,0.23624 c 0,0 0.66828,-3.37926 0.09449,-4.91369 -0.201559,-0.53901 -0.789953,-0.83806 -1.157584,-1.28078 -0.09391,-0.11309 -0.267269,-0.35079 -0.267269,-0.35079 0,0 -0.374257,-1.28284 0.0167,-1.68714 0.267329,-0.27645 1.152601,-0.0501 1.152601,-0.0501 l 0.03341,-1.72055 c 0,0 0.327921,-1.55806 0.484426,-2.33861 0.210625,-1.05047 0.378083,-2.10979 0.611785,-3.15536 0.251627,-1.12577 0.53261,-2.24563 0.850445,-3.35453 0.291613,-1.017416 0.577463,-2.040343 0.968566,-3.023812 0.626025,-1.574206 1.415918,-3.079644 2.196986,-4.582962 0.74934,-1.44225 1.508426,-2.884203 2.385973,-4.252233 1.083436,-1.688996 2.261439,-3.322815 3.543527,-4.866444 1.245677,-1.499789 2.574167,-2.939904 4.015997,-4.252232 1.684471,-1.533175 3.479295,-2.95922 5.386162,-4.204983 1.527892,-0.998177 3.168251,-1.820645 4.819195,-2.598587 1.399505,-0.659461 2.846127,-1.217793 4.299479,-1.748142 1.150951,-0.419998 3.496281,-1.133927 3.496281,-1.133927 0,0 -0.192679,-1.762808 -0.161307,-2.645833 0.0025,-0.07008 0.01,-0.140691 0.02767,-0.208557 0.127342,-0.489161 0.163981,-1.094116 0.558861,-1.409653 0.298867,-0.238815 0.784025,-0.02251 1.13393,-0.177176 0.850361,-0.37587 1.516823,-1.089857 2.173369,-1.748142 0.783335,-0.78541 1.512448,-1.64483 2.078868,-2.598587 0.540661,-0.910378 0.967101,-1.903249 1.228421,-2.929313 0.19145,-0.751712 0.31457,-1.543361 0.23624,-2.315104 -0.085,-0.837496 -0.32633,-1.685688 -0.75595,-2.4096 -0.31265,-0.526805 -0.846459,-0.885828 -1.275673,-1.322917 -0.202868,-0.20659 -0.503409,-0.346709 -0.614212,-0.614211 -0.07835,-0.189152 0.110841,-0.442072 0,-0.614209 -0.10302,-0.159996 -0.519714,-0.236236 -0.519714,-0.236236 l -0.283483,-0.283483 0.377979,-0.850447 c 5.111333,0.167755 5.508343,0.178366 3.071053,0.0945 0,0 -0.25918,-0.732973 -0.0945,-1.039435 0.22014,-0.40966 1.22842,-0.661458 1.22842,-0.661458 l 0.0945,-0.850447 c 0,0 -0.6031,-0.672748 -0.75595,-1.086681 -0.21931,-0.593904 -0.27566,-1.26274 -0.18899,-1.889882 0.12972,-0.938641 1.03944,-2.645833 1.03944,-2.645833 l 0.28348,-1.606399 0.14174,-0.992188 c 0,0 -0.39427,-1.127741 -0.68964,-1.643076 z"
       id="path827"
       inkscape:connector-curvature="0"
       sodipodi:nodetypes="ssssaaaasssccssscscccccssssaaascsssaassssaaacccccsssssccsscsccssssssssssasssccsssssascsssccsssssscssccassssssssscccssccssccscccccaaasccssccsssscsscccssccsssscssccccccccccccccccssssccssscsssscccssssssssssssssscccccccccsssssssssssccsscsccssssssaassscaaaassssssssccccsccsscccs" />
    <path
       style="fill:none;stroke:#000000;stroke-width:0.26458332px;stroke-linecap:butt;stroke-linejoin:miter;stroke-opacity:1;opacity:0"
       d="m 97.039654,164.04687 0.478202,-33.82887 13.418154,0.0945 -0.18899,33.73437 z"
       id="path829"
       inkscape:connector-curvature="0"
       sodipodi:nodetypes="ccccc" />
    <path
       style="fill:none;stroke:#000000;stroke-width:0.26458332px;stroke-linecap:butt;stroke-linejoin:miter;stroke-opacity:1;opacity:0"
       d="m 124.01306,164.04687 c 0,0 -0.0925,-18.04871 -0.0809,-27.07312 0.001,-0.84683 0.14448,-1.70372 0.0141,-2.54044 -0.1551,-0.99518 -0.39898,-2.02071 -0.93544,-2.87315 -0.3608,-0.57331 -0.88097,-1.06861 -1.46998,-1.40316 -0.3618,-0.2055 -0.78665,-0.33765 -1.20272,-0.33409 -0.62718,0.005 -1.27368,0.19978 -1.80407,0.53454 -0.25339,0.15993 -0.45163,0.40861 -0.60135,0.66817 -0.43288,0.75044 -0.66652,1.61653 -0.80181,2.47224 -0.19478,1.23196 0,3.74178 0,3.74178 l -0.40091,26.80723 z"
       id="path833"
       inkscape:connector-curvature="0"
       sodipodi:nodetypes="caaaaaaaaccc" />
    <path
       style="fill:none;stroke:#000000;stroke-width:0.26458332px;stroke-linecap:butt;stroke-linejoin:miter;stroke-opacity:1;opacity:0"
       d="m 77.975883,164.04687 -0.46772,-33.75624 -6.013564,0.0668 -0.03341,33.68944 z"
       id="path835"
       inkscape:connector-curvature="0"
       sodipodi:nodetypes="ccccc" />
    <path
       style="fill:none;stroke:#000000;stroke-width:0.26458332px;stroke-linecap:butt;stroke-linejoin:miter;stroke-opacity:1;opacity:0"
       d="m 129.69254,164.04687 -0.20046,-34.02351 7.2831,0.13364 0.0668,33.88987 z"
       id="path837"
       inkscape:connector-curvature="0"
       sodipodi:nodetypes="ccccc" />
    <path
       style="fill:none;stroke:#000000;stroke-width:0.26458332px;stroke-linecap:butt;stroke-linejoin:miter;stroke-opacity:1;opacity:0"
       d="m 63.722397,164.04687 0.155578,-29.57663 c 0,0 -0.216031,-2.02846 0.259858,-2.85845 0.235856,-0.41135 0.696647,-0.71544 1.157554,-0.82682 0.526083,-0.12713 1.151838,-0.0575 1.606397,0.23626 0.392602,0.25374 0.622042,0.73331 0.755954,1.18118 0.225698,0.75484 0.02781,2.36341 0.02781,2.36341 l 0.350171,29.48105 z"
       id="path839"
       inkscape:connector-curvature="0"
       sodipodi:nodetypes="ccaaaaccc" />
    <path
       style="fill:none;stroke:#000000;stroke-width:0.26458332px;stroke-linecap:butt;stroke-linejoin:miter;stroke-opacity:1;opacity:0"
       d="m 141.10729,164.04687 -0.78363,-31.56101 c 0,0 0.1178,-0.87393 0.35435,-1.22842 0.25189,-0.37747 0.63485,-0.70024 1.06306,-0.85045 0.29722,-0.10426 0.64772,-0.10426 0.94494,0 0.38063,0.13352 0.70067,0.43495 0.94494,0.75595 0.29053,0.3818 0.56696,1.32292 0.56696,1.32292 l 0.50589,31.56101 z"
       id="path841"
       inkscape:connector-curvature="0"
       sodipodi:nodetypes="ccaaaaccc" />
    <path
       style="fill:none;stroke:#000000;stroke-width:0.26458332px;stroke-linecap:butt;stroke-linejoin:miter;stroke-opacity:1;opacity:0"
       d="m 97.61235,257.02902 -0.47247,-38.93155 12.09524,-0.18899 0.66146,39.21503 z"
       id="path843"
       inkscape:connector-curvature="0" />
    <path
       style="fill:none;stroke:#000000;stroke-width:0.26458332px;stroke-linecap:butt;stroke-linejoin:miter;stroke-opacity:1;opacity:0"
       d="m 117.69345,240.56735 8.21853,0.0668 0.032,-26.15899 c 0,0 0.0901,-0.76782 0.001,-1.13591 -0.12826,-0.52957 -0.2724,-1.04865 -0.50935,-1.51236 -0.10093,-0.19753 -0.21871,-0.38501 -0.35927,-0.55898 -0.56305,-0.69685 -1.34213,-1.2957 -2.20497,-1.5368 -1.01024,-0.28228 -2.2034,-0.27097 -3.14042,0.20047 -1.01646,0.51141 -1.81723,1.53612 -2.20497,2.60588 -0.16692,0.46054 0.01,1.46953 0.01,1.46953 z"
       id="path849"
       inkscape:connector-curvature="0"
       sodipodi:nodetypes="cccsssaaacc" />
    <path
       style="fill:none;stroke:#000000;stroke-width:0.26458332px;stroke-linecap:butt;stroke-linejoin:miter;stroke-opacity:1;opacity:0"
       d="m 79.998668,240.47419 8.21853,0.0668 0.032,-26.15899 c 0,0 0.0901,-0.76782 10e-4,-1.13591 -0.12827,-0.52957 -0.27241,-1.04865 -0.50936,-1.51236 -0.10093,-0.19753 -0.21871,-0.38501 -0.35927,-0.55898 -0.56305,-0.69685 -1.34213,-1.2957 -2.20497,-1.5368 -1.01024,-0.28228 -2.2034,-0.27097 -3.14042,0.20047 -1.01646,0.51141 -1.81723,1.53612 -2.20497,2.60588 -0.16692,0.46054 0.01,1.46953 0.01,1.46953 z"
       id="path849-2"
       inkscape:connector-curvature="0"
       sodipodi:nodetypes="cccsssaaacc" />
    <path
       style="fill:none;stroke:#000000;stroke-width:0.26458332px;stroke-linecap:butt;stroke-linejoin:miter;stroke-opacity:1;opacity:0"
       d="m 50.138544,240.62539 8.21853,0.0668 0.032,-26.15899 c 0,0 0.0901,-0.76782 10e-4,-1.13591 -0.12827,-0.52957 -0.27241,-1.04865 -0.50936,-1.51236 -0.10093,-0.19753 -0.21871,-0.38501 -0.35927,-0.55898 -0.56305,-0.69685 -1.342131,-1.2957 -2.20497,-1.5368 -1.01024,-0.28228 -2.2034,-0.27097 -3.14042,0.20047 -1.01646,0.51141 -1.81723,1.53612 -2.20497,2.60588 -0.16692,0.46054 0.01,1.46953 0.01,1.46953 z"
       id="path849-3"
       inkscape:connector-curvature="0"
       sodipodi:nodetypes="cccsssaaacc" />
    <path
       style="fill:none;stroke:#000000;stroke-width:0.26458332px;stroke-linecap:butt;stroke-linejoin:miter;stroke-opacity:1;opacity:0"
       d="m 64.711507,240.53519 8.21853,0.0668 0.032,-26.15899 c 0,0 0.0901,-0.76782 0.001,-1.13591 -0.12827,-0.52957 -0.27241,-1.04865 -0.50936,-1.51236 -0.10093,-0.19753 -0.21871,-0.38501 -0.35927,-0.55898 -0.56305,-0.69685 -1.34213,-1.2957 -2.20497,-1.5368 -1.01024,-0.28228 -2.2034,-0.27097 -3.14042,0.20047 -1.01646,0.51141 -1.81723,1.53612 -2.20497,2.60588 -0.16692,0.46054 0.01,1.46953 0.01,1.46953 z"
       id="path849-6"
       inkscape:connector-curvature="0"
       sodipodi:nodetypes="cccsssaaacc" />
    <path
       style="fill:none;stroke:#000000;stroke-width:0.26458332px;stroke-linecap:butt;stroke-linejoin:miter;stroke-opacity:1;opacity:0"
       d="m 132.04601,240.2852 8.21853,0.0668 0.032,-26.15899 c 0,0 0.0901,-0.76782 0.001,-1.13591 -0.12827,-0.52957 -0.27241,-1.04865 -0.50936,-1.51236 -0.10093,-0.19753 -0.21871,-0.38501 -0.35927,-0.55898 -0.56305,-0.69685 -1.34213,-1.2957 -2.20497,-1.5368 -1.01024,-0.28228 -2.2034,-0.27097 -3.14042,0.20047 -1.01646,0.51141 -1.81723,1.53612 -2.20497,2.60588 -0.16692,0.46054 0.01,1.46953 0.01,1.46953 z"
       id="path849-4"
       inkscape:connector-curvature="0"
       sodipodi:nodetypes="cccsssaaacc" />
    <path
       style="fill:none;stroke:#000000;stroke-width:0.26458332px;stroke-linecap:butt;stroke-linejoin:miter;stroke-opacity:1;opacity:0"
       d="m 147.08946,240.2852 8.21853,0.0668 0.032,-26.15899 c 0,0 0.0901,-0.76782 0.001,-1.13591 -0.12827,-0.52957 -0.27241,-1.04865 -0.50936,-1.51236 -0.10093,-0.19753 -0.21871,-0.38501 -0.35927,-0.55898 -0.56305,-0.69685 -1.34213,-1.2957 -2.20497,-1.5368 -1.01024,-0.28228 -2.2034,-0.27097 -3.14042,0.20047 -1.01646,0.51141 -1.81723,1.53612 -2.20497,2.60588 -0.16692,0.46054 0.01,1.46953 0.01,1.46953 z"
       id="path849-7"
       inkscape:connector-curvature="0"
       sodipodi:nodetypes="cccsssaaacc" />
    <path
       style="fill:none;stroke:#000000;stroke-width:0.26458332px;stroke-linecap:butt;stroke-linejoin:miter;stroke-opacity:1;opacity:0"
       d="m 90.872156,163.93069 c 0,0 -0.0924,-18.08429 -0.0809,-27.12648 10e-4,-0.84683 0.144479,-1.70372 0.0141,-2.54044 -0.155101,-0.99518 -0.398981,-2.02071 -0.935441,-2.87315 -0.3608,-0.57331 -0.88097,-1.06861 -1.46998,-1.40316 -0.3618,-0.2055 -0.786649,-0.33765 -1.20272,-0.33409 -0.62718,0.005 -1.27368,0.19978 -1.80407,0.53454 -0.25339,0.15993 -0.45163,0.40861 -0.60135,0.66817 -0.43288,0.75044 -0.66652,1.61653 -0.80181,2.47224 -0.19478,1.23196 0,3.74178 0,3.74178 l -0.33409,26.97677 z"
       id="path833-9"
       inkscape:connector-curvature="0"
       sodipodi:nodetypes="caaaaaaaaccc" />
    <path
       style="fill:#ffffff;stroke:none;stroke-width:2.02030516"
       d="m 66.01514,1039.7046 c 0.652434,-5.7215 1.01591,-5.8987 13.297676,-6.4837 10.85379,-0.5171 12.626907,-1.1413 12.626907,-4.4453 0,-2.1141 -1.590991,-4.7705 -3.535534,-5.9031 -2.672712,-1.5567 -0.396552,-2.0743 9.326894,-2.1207 12.618277,-0.06 12.844097,-0.1574 11.896917,-5.1122 -0.93509,-4.8916 -0.61584,-5.0508 10.13034,-5.0508 h 11.09586 l -1.14747,-7.071 -1.14748,-7.0711 h 9.97451 9.97451 v -10.10153 c 0,-5.55584 -0.90914,-10.10152 -2.02031,-10.10152 -1.11117,0 -2.02031,-0.90914 -2.02031,-2.02031 0,-1.11117 1.36371,-2.0203 3.03046,-2.0203 1.8197,0 3.03046,-1.86574 3.03046,-4.66982 0,-2.56839 1.59099,-6.43223 3.53553,-8.58629 1.94455,-2.15407 3.73122,-5.73476 3.9704,-7.9571 0.23917,-2.22233 1.05226,-47.6792 1.80687,-101.01525 l 1.37201,-96.97465 -5.52132,-5.45926 c -6.15714,-6.08793 -5.40331,-9.69302 2.02681,-9.69302 4.11062,0 4.93153,-0.98907 4.93153,-5.94168 0,-3.26793 -0.82289,-6.45027 -1.82865,-7.07186 -1.00576,-0.62158 -1.33356,-6.59019 -0.72844,-13.26354 1.02124,-11.2624 0.70997,-12.49504 -4.33635,-17.17181 -2.99011,-2.77113 -6.6474,-5.03844 -8.12731,-5.03844 -1.4799,0 -3.16622,-1.81827 -3.74738,-4.04061 -0.95061,-3.63515 -0.062,-4.04061 8.85575,-4.04061 6.42656,0 10.01555,-0.88808 10.20576,-2.52538 0.16136,-1.38896 0.53172,-11.9932 0.82302,-23.56496 0.4286,-17.02604 -0.0823,-21.65078 -2.67809,-24.24366 -2.92874,-2.9254 -0.25987,-3.25233 30.68574,-3.75888 28.32902,-0.46372 34.44207,-1.10315 37.23498,-3.89472 2.96345,-2.96207 3.40403,-11.58496 3.89423,-76.2168 l 0.55274,-72.87687 -6.10858,-6.45643 c -3.35971,-3.55103 -6.10857,-7.6876 -6.10857,-9.19239 0,-1.50476 -1.09097,-3.82692 -2.42437,-5.16032 -1.88562,-1.88561 -0.53875,-2.42437 6.06092,-2.42437 h 8.48528 v -10.86431 c 0,-7.19247 -1.02421,-11.71431 -3.03046,-13.37935 -3.38209,-2.80689 -4.0201,-7.38571 -1.17294,-8.41794 1.02163,-0.37039 4.18423,-11.12851 7.028,-23.90694 13.70191,-61.56942 53.98995,-108.46998 109.30233,-127.24227 9.46166,-3.21116 10.14161,-3.90304 10.73445,-10.92261 0.47142,-5.58229 1.79191,-7.93496 5.17576,-9.22149 5.99956,-2.28103 17.17631,-15.1701 20.91597,-24.12038 4.01459,-9.60826 2.21646,-20.89324 -4.61932,-28.99064 l -5.55808,-6.58388 8.89897,-1.21179 c 4.89444,-0.66649 7.65122,-1.34834 6.12622,-1.51523 -2.21596,-0.2425 -2.27475,-0.90352 -0.29275,-3.29169 1.75353,-2.11286 1.91477,-4.62818 0.55046,-8.5863 -1.33935,-3.88569 -1.14232,-7.76097 0.64411,-12.66911 4.10255,-11.27161 3.30985,-18.45178 -3.07765,-27.87632 -5.04016,-7.4366 -5.59403,-9.51869 -3.85729,-14.50066 2.5176,-7.22202 11.24282,-10.8345 17.95176,-7.43255 10.29952,5.22264 10.26996,14.50841 -0.0836,26.3006 -6.93138,7.89442 -7.24445,10.29474 -2.79351,21.41872 2.50307,6.25581 2.75856,9.46901 1.12539,14.15394 -1.6493,4.73118 -1.47327,6.70043 0.8024,8.97609 1.6033,1.60337 2.91514,3.8893 2.91514,5.07984 0,1.19054 1.81828,2.16461 4.04061,2.16461 2.24478,0 4.04061,1.34687 4.04061,3.03046 0,1.66675 -0.88578,3.03046 -1.96842,3.03046 -3.69641,0 -8.1331,11.90538 -8.1331,21.82426 0,12.15783 6.00093,22.08968 16.44342,27.21472 6.01504,2.95211 7.51998,4.96589 8.55682,11.44991 1.24247,7.77001 1.45393,7.933 17.01459,13.11517 30.93566,10.30253 59.14606,31.87827 78.60417,60.11767 17.54788,25.46711 24.6973,42.80626 28.99859,70.32908 2.73782,17.51859 3.68019,20.20305 7.0922,20.20305 3.83607,0 3.72738,5.86806 -0.13617,7.35062 -2.21935,0.85166 -3.03046,4.34947 -3.03046,13.06858 v 11.90568 h 8.48528 c 6.59967,0 7.94653,0.53876 6.06092,2.42437 -1.3334,1.3334 -2.42437,4.51538 -2.42437,7.07107 0,2.55568 -1.22281,4.6467 -2.71733,4.6467 -1.49454,0 -4.23395,1.67582 -6.08758,3.72407 -3.03797,3.35694 -3.31781,10.95864 -2.83849,77.10939 0.4096,56.52973 1.11178,73.5784 3.05711,74.22602 1.38896,0.46239 2.52538,2.12868 2.52538,3.70282 0,2.33693 5.345,2.86211 29.12918,2.86211 33.82472,0 36.47954,0.54348 33.06086,6.76794 -3.04929,5.5519 -3.74627,27.57724 -0.87267,27.57724 1.31114,0 1.19507,0.92516 -0.30414,2.42437 -2.9313,2.9313 -3.23428,11.71777 -0.40406,11.71777 1.11117,0 2.02031,1.3637 2.02031,3.03046 0,2.23524 2.33599,3.03045 8.90223,3.03045 7.4904,0 8.75281,0.56072 7.96,3.53554 -0.51823,1.94454 -4.48883,6.06918 -8.8236,9.16588 l -7.88135,5.63033 0.11697,19.11841 c 0.11476,18.73758 0.21244,19.11839 4.90874,19.11839 3.72883,0 4.4935,0.78424 3.4473,3.53553 -0.73943,1.94454 -3.49856,5.23988 -6.13138,7.323 l -4.78695,3.78747 0.63894,100.25824 0.63894,100.25825 4.78362,6.37392 c 2.631,3.50567 4.16834,7.36951 3.4163,8.5863 -0.75202,1.2168 -0.70119,3.29018 0.11293,4.60748 0.81414,1.31732 1.25645,7.22671 0.98292,13.13199 l -0.49734,10.73687 7.72262,0.0309 c 4.24743,0.0162 9.08632,0.91223 10.75307,1.98937 2.02031,1.30562 2.18866,1.96873 0.50508,1.98943 -1.38896,0.016 -2.52538,2.3037 -2.52538,5.0816 0,4.8723 0.46667,5.0508 13.20305,5.0508 11.92021,0 13.02639,0.3435 11.38469,3.5355 -3.31878,6.4528 -0.53742,8.5789 11.44102,8.7458 6.29663,0.088 10.31199,0.6181 8.92303,1.1786 -1.38896,0.5604 -2.52539,3.2161 -2.52539,5.9014 0,4.5712 0.70826,4.8824 11.11168,4.8824 9.7648,0 11.11168,0.4897 11.11168,4.0406 0,4.0211 -1.34688,4.0406 -279.4865,4.0406 -153.71758,0 -298.79955,0.6015 -322.40436,1.3366 l -42.91785,1.3366 0.67077,-5.8823 z m 350.13304,-84.33743 c -0.0278,-9.63013 -0.25506,-43.41973 -0.50507,-75.08802 l -0.45457,-57.57869 h -24.24366 -24.24367 v 74.68512 74.68513 l 22.72844,0.62172 c 12.50063,0.34196 23.63757,0.52326 24.74873,0.40289 1.17899,-0.12768 1.99928,-7.51028 1.9698,-17.72815 z M 221.23925,857.21089 c 0,-29.91066 -0.56474,-55.85469 -1.25498,-57.65343 -1.53258,-3.99386 -11.12838,-9.18188 -16.98285,-9.18188 -2.36299,0 -6.95382,2.65747 -10.20185,5.90551 l -5.90551,5.90549 v 33.17616 c 0,18.24689 0.59273,42.86354 1.31717,54.70366 l 1.31717,21.52748 h 15.85543 15.85542 z m 55.55839,-1.85739 v -55.23025 l -5.66849,-4.87383 c -7.92764,-6.81626 -16.37353,-6.37614 -24.00034,1.25067 -4.48594,4.48593 -5.80304,7.32365 -4.92295,10.6066 0.66087,2.46514 1.21398,26.462 1.22916,53.32636 0.0315,55.78638 -1.89231,50.98769 20.23064,50.46245 l 13.13198,-0.31177 z m 200.60664,0.50429 -0.59644,-55.73608 -5.66849,-4.87308 c -6.95627,-5.98012 -15.28759,-6.23585 -22.34332,-0.68581 l -5.32322,4.18725 v 56.4219 56.42191 h 17.26395 17.26397 z m -143.02795,-0.92427 v -54.64008 l -4.95894,-4.95892 c -3.42373,-3.42375 -7.20483,-4.95894 -12.21365,-4.95894 -5.00882,0 -8.78992,1.53519 -12.21365,4.95894 l -4.95894,4.95892 v 54.64008 54.64006 h 17.17259 17.17259 z m 197.57758,0.25108 -0.59783,-54.38898 -4.89785,-5.21002 c -3.31146,-3.52252 -7.02056,-5.21002 -11.45153,-5.21002 -17.5731,0 -18.12096,2.08388 -17.39507,66.16499 l 0.60074,53.03301 h 17.16968 17.16969 z m 56.98086,1.76072 c 0,-63.96951 -0.75613,-66.56974 -19.35813,-66.56974 -4.2121,0 -8.48193,1.5761 -10.94644,4.04061 -3.8447,3.8447 -4.04061,6.73434 -4.04061,59.599 v 55.55839 h 17.17259 17.17259 z M 257.60474,559.45471 c 0,-44.91811 -0.64543,-61.86068 -2.42437,-63.63961 -3.71154,-3.71155 -11.32923,-2.88472 -13.66699,1.48342 -1.30637,2.44098 -2.09139,26.32848 -2.09139,63.63962 v 59.73181 h 9.09138 9.09137 z m 38.3858,30.22317 c 0,-17.04563 -0.59735,-46.13803 -1.32742,-64.64976 l -1.32743,-33.6577 h -11.80456 -11.80456 l -0.004,17.67767 c -0.002,9.72272 -0.60233,38.81512 -1.33284,64.64977 l -1.32816,46.97209 h 14.46479 14.46482 v -30.99207 z m 48.47976,-28.10185 c -0.008,-55.70149 -0.24154,-59.47772 -4.08352,-65.77932 -3.59931,-5.90357 -4.95526,-6.61236 -11.59485,-6.06091 -5.73242,0.4761 -8.06439,1.82451 -9.81485,5.67523 -1.45314,3.19671 -2.73242,27.11399 -3.48496,65.15484 l -1.18901,60.10408 h 15.08737 15.08738 l -0.008,-59.09392 z m 75.44597,27.27412 c 0.72584,-17.5009 1.32276,-46.59329 1.32645,-64.64977 l 0.007,-32.82996 H 393.9756 366.70148 l -0.0101,44.95179 c -0.006,24.72349 -0.59744,53.81588 -1.31487,64.64977 l -1.30441,19.69797 h 27.26254 27.26252 l 1.31973,-31.8198 z m 49.40042,-28.62963 -0.59007,-60.44942 -4.89784,-5.21049 c -8.17575,-8.6976 -19.46613,-5.8082 -21.18125,5.42066 -0.54954,3.5978 -1.55488,32.22457 -2.23411,63.61506 l -1.23493,57.07362 h 15.36414 15.36413 z m 48.90741,-3.94779 V 491.8755 l -6.31346,-1.26269 c -3.4724,-0.69448 -10.29093,-1.26269 -15.15229,-1.26269 h -8.83883 v 65.65991 65.65992 h 15.15229 15.15229 z m 29.61456,24.67639 c -0.73166,-21.84645 -1.33029,-49.51021 -1.33029,-61.475 0,-17.08277 -0.68173,-22.43589 -3.17477,-24.92893 -3.98398,-3.984 -7.79731,-4.03592 -11.67425,-0.159 -2.53165,2.53163 -2.86999,9.26207 -2.10748,41.92134 0.4996,21.39804 1.4269,49.13331 2.06065,61.63395 l 1.15232,22.72843 h 8.20205 8.20206 l -1.33029,-39.72083 z"
       id="path909"
       inkscape:connector-curvature="0"
       transform="scale(0.26458333)" />
  </g>
</svg>
